<mxfile host="Electron" modified="2024-11-12T01:23:40.292Z" agent="Mozilla/5.0 (X11; Linux x86_64) AppleWebKit/537.36 (KHTML, like Gecko) draw.io/24.4.6 Chrome/124.0.6367.207 Electron/30.0.6 Safari/537.36" etag="KWxqznQMO5awq-fkn8sk" version="24.4.6" type="device">
  <diagram id="R2lEEEUBdFMjLlhIrx00" name="Page-1">
    <mxGraphModel dx="3339" dy="2280" grid="1" gridSize="10" guides="1" tooltips="1" connect="1" arrows="1" fold="1" page="1" pageScale="1" pageWidth="850" pageHeight="1100" math="0" shadow="0" extFonts="Permanent Marker^https://fonts.googleapis.com/css?family=Permanent+Marker">
      <root>
        <mxCell id="0" />
        <mxCell id="1" parent="0" />
        <mxCell id="Ln_gXeSGQNPCePtx27tQ-356" value="&lt;font style=&quot;font-size: 36px;&quot;&gt;n:1&lt;/font&gt;" style="edgeStyle=orthogonalEdgeStyle;rounded=0;orthogonalLoop=1;jettySize=auto;html=1;entryX=0.75;entryY=0;entryDx=0;entryDy=0;fontFamily=Helvetica;fontSize=12;fontColor=default;fontStyle=1;" parent="1" source="C-vyLk0tnHw3VtMMgP7b-23" target="Ln_gXeSGQNPCePtx27tQ-224" edge="1">
          <mxGeometry relative="1" as="geometry">
            <Array as="points">
              <mxPoint x="145" y="-320" />
              <mxPoint x="1333" y="-320" />
            </Array>
          </mxGeometry>
        </mxCell>
        <mxCell id="C-vyLk0tnHw3VtMMgP7b-23" value="Flights" style="shape=table;startSize=30;container=1;collapsible=1;childLayout=tableLayout;fixedRows=1;rowLines=0;fontStyle=1;align=center;resizeLast=1;" parent="1" vertex="1">
          <mxGeometry x="-70" y="-280" width="430" height="420" as="geometry" />
        </mxCell>
        <mxCell id="C-vyLk0tnHw3VtMMgP7b-24" value="" style="shape=partialRectangle;collapsible=0;dropTarget=0;pointerEvents=0;fillColor=none;points=[[0,0.5],[1,0.5]];portConstraint=eastwest;top=0;left=0;right=0;bottom=1;" parent="C-vyLk0tnHw3VtMMgP7b-23" vertex="1">
          <mxGeometry y="30" width="430" height="30" as="geometry" />
        </mxCell>
        <mxCell id="C-vyLk0tnHw3VtMMgP7b-25" value="PK" style="shape=partialRectangle;overflow=hidden;connectable=0;fillColor=none;top=0;left=0;bottom=0;right=0;fontStyle=1;" parent="C-vyLk0tnHw3VtMMgP7b-24" vertex="1">
          <mxGeometry width="30" height="30" as="geometry">
            <mxRectangle width="30" height="30" as="alternateBounds" />
          </mxGeometry>
        </mxCell>
        <mxCell id="C-vyLk0tnHw3VtMMgP7b-26" value="ID SERIAL" style="shape=partialRectangle;overflow=hidden;connectable=0;fillColor=none;top=0;left=0;bottom=0;right=0;align=left;spacingLeft=6;fontStyle=5;" parent="C-vyLk0tnHw3VtMMgP7b-24" vertex="1">
          <mxGeometry x="30" width="400" height="30" as="geometry">
            <mxRectangle width="400" height="30" as="alternateBounds" />
          </mxGeometry>
        </mxCell>
        <mxCell id="Ln_gXeSGQNPCePtx27tQ-297" value="" style="shape=partialRectangle;collapsible=0;dropTarget=0;pointerEvents=0;fillColor=none;points=[[0,0.5],[1,0.5]];portConstraint=eastwest;top=0;left=0;right=0;bottom=1;" parent="C-vyLk0tnHw3VtMMgP7b-23" vertex="1">
          <mxGeometry y="60" width="430" height="30" as="geometry" />
        </mxCell>
        <mxCell id="Ln_gXeSGQNPCePtx27tQ-298" value="FK" style="shape=partialRectangle;overflow=hidden;connectable=0;fillColor=none;top=0;left=0;bottom=0;right=0;fontStyle=1;" parent="Ln_gXeSGQNPCePtx27tQ-297" vertex="1">
          <mxGeometry width="30" height="30" as="geometry">
            <mxRectangle width="30" height="30" as="alternateBounds" />
          </mxGeometry>
        </mxCell>
        <mxCell id="Ln_gXeSGQNPCePtx27tQ-299" value="passenger_id INT NOT NULL" style="shape=partialRectangle;overflow=hidden;connectable=0;fillColor=none;top=0;left=0;bottom=0;right=0;align=left;spacingLeft=6;fontStyle=5;" parent="Ln_gXeSGQNPCePtx27tQ-297" vertex="1">
          <mxGeometry x="30" width="400" height="30" as="geometry">
            <mxRectangle width="400" height="30" as="alternateBounds" />
          </mxGeometry>
        </mxCell>
        <mxCell id="C-vyLk0tnHw3VtMMgP7b-27" value="" style="shape=partialRectangle;collapsible=0;dropTarget=0;pointerEvents=0;fillColor=none;points=[[0,0.5],[1,0.5]];portConstraint=eastwest;top=0;left=0;right=0;bottom=0;" parent="C-vyLk0tnHw3VtMMgP7b-23" vertex="1">
          <mxGeometry y="90" width="430" height="30" as="geometry" />
        </mxCell>
        <mxCell id="C-vyLk0tnHw3VtMMgP7b-28" value="" style="shape=partialRectangle;overflow=hidden;connectable=0;fillColor=none;top=0;left=0;bottom=0;right=0;" parent="C-vyLk0tnHw3VtMMgP7b-27" vertex="1">
          <mxGeometry width="30" height="30" as="geometry">
            <mxRectangle width="30" height="30" as="alternateBounds" />
          </mxGeometry>
        </mxCell>
        <mxCell id="C-vyLk0tnHw3VtMMgP7b-29" value="origin INT NOT NULL" style="shape=partialRectangle;overflow=hidden;connectable=0;fillColor=none;top=0;left=0;bottom=0;right=0;align=left;spacingLeft=6;" parent="C-vyLk0tnHw3VtMMgP7b-27" vertex="1">
          <mxGeometry x="30" width="400" height="30" as="geometry">
            <mxRectangle width="400" height="30" as="alternateBounds" />
          </mxGeometry>
        </mxCell>
        <mxCell id="aTKwhWjxCl2psLVctp9T-1" value="" style="shape=partialRectangle;collapsible=0;dropTarget=0;pointerEvents=0;fillColor=none;points=[[0,0.5],[1,0.5]];portConstraint=eastwest;top=0;left=0;right=0;bottom=0;" parent="C-vyLk0tnHw3VtMMgP7b-23" vertex="1">
          <mxGeometry y="120" width="430" height="30" as="geometry" />
        </mxCell>
        <mxCell id="aTKwhWjxCl2psLVctp9T-2" value="" style="shape=partialRectangle;overflow=hidden;connectable=0;fillColor=none;top=0;left=0;bottom=0;right=0;" parent="aTKwhWjxCl2psLVctp9T-1" vertex="1">
          <mxGeometry width="30" height="30" as="geometry">
            <mxRectangle width="30" height="30" as="alternateBounds" />
          </mxGeometry>
        </mxCell>
        <mxCell id="aTKwhWjxCl2psLVctp9T-3" value="destination INT NOT NULL" style="shape=partialRectangle;overflow=hidden;connectable=0;fillColor=none;top=0;left=0;bottom=0;right=0;align=left;spacingLeft=6;" parent="aTKwhWjxCl2psLVctp9T-1" vertex="1">
          <mxGeometry x="30" width="400" height="30" as="geometry">
            <mxRectangle width="400" height="30" as="alternateBounds" />
          </mxGeometry>
        </mxCell>
        <mxCell id="aTKwhWjxCl2psLVctp9T-4" value="" style="shape=partialRectangle;collapsible=0;dropTarget=0;pointerEvents=0;fillColor=none;points=[[0,0.5],[1,0.5]];portConstraint=eastwest;top=0;left=0;right=0;bottom=0;" parent="C-vyLk0tnHw3VtMMgP7b-23" vertex="1">
          <mxGeometry y="150" width="430" height="30" as="geometry" />
        </mxCell>
        <mxCell id="aTKwhWjxCl2psLVctp9T-5" value="" style="shape=partialRectangle;overflow=hidden;connectable=0;fillColor=none;top=0;left=0;bottom=0;right=0;" parent="aTKwhWjxCl2psLVctp9T-4" vertex="1">
          <mxGeometry width="30" height="30" as="geometry">
            <mxRectangle width="30" height="30" as="alternateBounds" />
          </mxGeometry>
        </mxCell>
        <mxCell id="aTKwhWjxCl2psLVctp9T-6" value="destination_airport VARCHAR(50) NOT NULL" style="shape=partialRectangle;overflow=hidden;connectable=0;fillColor=none;top=0;left=0;bottom=0;right=0;align=left;spacingLeft=6;" parent="aTKwhWjxCl2psLVctp9T-4" vertex="1">
          <mxGeometry x="30" width="400" height="30" as="geometry">
            <mxRectangle width="400" height="30" as="alternateBounds" />
          </mxGeometry>
        </mxCell>
        <mxCell id="aTKwhWjxCl2psLVctp9T-7" value="" style="shape=partialRectangle;collapsible=0;dropTarget=0;pointerEvents=0;fillColor=none;points=[[0,0.5],[1,0.5]];portConstraint=eastwest;top=0;left=0;right=0;bottom=0;" parent="C-vyLk0tnHw3VtMMgP7b-23" vertex="1">
          <mxGeometry y="180" width="430" height="30" as="geometry" />
        </mxCell>
        <mxCell id="aTKwhWjxCl2psLVctp9T-8" value="" style="shape=partialRectangle;overflow=hidden;connectable=0;fillColor=none;top=0;left=0;bottom=0;right=0;" parent="aTKwhWjxCl2psLVctp9T-7" vertex="1">
          <mxGeometry width="30" height="30" as="geometry">
            <mxRectangle width="30" height="30" as="alternateBounds" />
          </mxGeometry>
        </mxCell>
        <mxCell id="aTKwhWjxCl2psLVctp9T-9" value="empty_weight DOUBLE NOT NULL" style="shape=partialRectangle;overflow=hidden;connectable=0;fillColor=none;top=0;left=0;bottom=0;right=0;align=left;spacingLeft=6;" parent="aTKwhWjxCl2psLVctp9T-7" vertex="1">
          <mxGeometry x="30" width="400" height="30" as="geometry">
            <mxRectangle width="400" height="30" as="alternateBounds" />
          </mxGeometry>
        </mxCell>
        <mxCell id="aTKwhWjxCl2psLVctp9T-10" value="" style="shape=partialRectangle;collapsible=0;dropTarget=0;pointerEvents=0;fillColor=none;points=[[0,0.5],[1,0.5]];portConstraint=eastwest;top=0;left=0;right=0;bottom=0;" parent="C-vyLk0tnHw3VtMMgP7b-23" vertex="1">
          <mxGeometry y="210" width="430" height="30" as="geometry" />
        </mxCell>
        <mxCell id="aTKwhWjxCl2psLVctp9T-11" value="" style="shape=partialRectangle;overflow=hidden;connectable=0;fillColor=none;top=0;left=0;bottom=0;right=0;" parent="aTKwhWjxCl2psLVctp9T-10" vertex="1">
          <mxGeometry width="30" height="30" as="geometry">
            <mxRectangle width="30" height="30" as="alternateBounds" />
          </mxGeometry>
        </mxCell>
        <mxCell id="aTKwhWjxCl2psLVctp9T-12" value="departure_time TIMESTAMP NOT NULL" style="shape=partialRectangle;overflow=hidden;connectable=0;fillColor=none;top=0;left=0;bottom=0;right=0;align=left;spacingLeft=6;" parent="aTKwhWjxCl2psLVctp9T-10" vertex="1">
          <mxGeometry x="30" width="400" height="30" as="geometry">
            <mxRectangle width="400" height="30" as="alternateBounds" />
          </mxGeometry>
        </mxCell>
        <mxCell id="Ln_gXeSGQNPCePtx27tQ-3" value="" style="shape=partialRectangle;collapsible=0;dropTarget=0;pointerEvents=0;fillColor=none;points=[[0,0.5],[1,0.5]];portConstraint=eastwest;top=0;left=0;right=0;bottom=0;" parent="C-vyLk0tnHw3VtMMgP7b-23" vertex="1">
          <mxGeometry y="240" width="430" height="30" as="geometry" />
        </mxCell>
        <mxCell id="Ln_gXeSGQNPCePtx27tQ-4" value="" style="shape=partialRectangle;overflow=hidden;connectable=0;fillColor=none;top=0;left=0;bottom=0;right=0;" parent="Ln_gXeSGQNPCePtx27tQ-3" vertex="1">
          <mxGeometry width="30" height="30" as="geometry">
            <mxRectangle width="30" height="30" as="alternateBounds" />
          </mxGeometry>
        </mxCell>
        <mxCell id="Ln_gXeSGQNPCePtx27tQ-5" value="arrival_time TIMESTAMP NOT NULL" style="shape=partialRectangle;overflow=hidden;connectable=0;fillColor=none;top=0;left=0;bottom=0;right=0;align=left;spacingLeft=6;" parent="Ln_gXeSGQNPCePtx27tQ-3" vertex="1">
          <mxGeometry x="30" width="400" height="30" as="geometry">
            <mxRectangle width="400" height="30" as="alternateBounds" />
          </mxGeometry>
        </mxCell>
        <mxCell id="Ln_gXeSGQNPCePtx27tQ-40" value="" style="shape=partialRectangle;collapsible=0;dropTarget=0;pointerEvents=0;fillColor=none;points=[[0,0.5],[1,0.5]];portConstraint=eastwest;top=0;left=0;right=0;bottom=0;" parent="C-vyLk0tnHw3VtMMgP7b-23" vertex="1">
          <mxGeometry y="270" width="430" height="30" as="geometry" />
        </mxCell>
        <mxCell id="Ln_gXeSGQNPCePtx27tQ-41" value="" style="shape=partialRectangle;overflow=hidden;connectable=0;fillColor=none;top=0;left=0;bottom=0;right=0;" parent="Ln_gXeSGQNPCePtx27tQ-40" vertex="1">
          <mxGeometry width="30" height="30" as="geometry">
            <mxRectangle width="30" height="30" as="alternateBounds" />
          </mxGeometry>
        </mxCell>
        <mxCell id="Ln_gXeSGQNPCePtx27tQ-42" value="transit BOOLEAN NOT NULL" style="shape=partialRectangle;overflow=hidden;connectable=0;fillColor=none;top=0;left=0;bottom=0;right=0;align=left;spacingLeft=6;" parent="Ln_gXeSGQNPCePtx27tQ-40" vertex="1">
          <mxGeometry x="30" width="400" height="30" as="geometry">
            <mxRectangle width="400" height="30" as="alternateBounds" />
          </mxGeometry>
        </mxCell>
        <mxCell id="Ln_gXeSGQNPCePtx27tQ-43" value="" style="shape=partialRectangle;collapsible=0;dropTarget=0;pointerEvents=0;fillColor=none;points=[[0,0.5],[1,0.5]];portConstraint=eastwest;top=0;left=0;right=0;bottom=0;" parent="C-vyLk0tnHw3VtMMgP7b-23" vertex="1">
          <mxGeometry y="300" width="430" height="30" as="geometry" />
        </mxCell>
        <mxCell id="Ln_gXeSGQNPCePtx27tQ-44" value="" style="shape=partialRectangle;overflow=hidden;connectable=0;fillColor=none;top=0;left=0;bottom=0;right=0;" parent="Ln_gXeSGQNPCePtx27tQ-43" vertex="1">
          <mxGeometry width="30" height="30" as="geometry">
            <mxRectangle width="30" height="30" as="alternateBounds" />
          </mxGeometry>
        </mxCell>
        <mxCell id="Ln_gXeSGQNPCePtx27tQ-45" value="comments VARCHAR(255) NOT NULL" style="shape=partialRectangle;overflow=hidden;connectable=0;fillColor=none;top=0;left=0;bottom=0;right=0;align=left;spacingLeft=6;" parent="Ln_gXeSGQNPCePtx27tQ-43" vertex="1">
          <mxGeometry x="30" width="400" height="30" as="geometry">
            <mxRectangle width="400" height="30" as="alternateBounds" />
          </mxGeometry>
        </mxCell>
        <mxCell id="aTKwhWjxCl2psLVctp9T-13" value="" style="shape=partialRectangle;collapsible=0;dropTarget=0;pointerEvents=0;fillColor=none;points=[[0,0.5],[1,0.5]];portConstraint=eastwest;top=0;left=0;right=0;bottom=0;" parent="C-vyLk0tnHw3VtMMgP7b-23" vertex="1">
          <mxGeometry y="330" width="430" height="30" as="geometry" />
        </mxCell>
        <mxCell id="aTKwhWjxCl2psLVctp9T-14" value="" style="shape=partialRectangle;overflow=hidden;connectable=0;fillColor=none;top=0;left=0;bottom=0;right=0;" parent="aTKwhWjxCl2psLVctp9T-13" vertex="1">
          <mxGeometry width="30" height="30" as="geometry">
            <mxRectangle width="30" height="30" as="alternateBounds" />
          </mxGeometry>
        </mxCell>
        <mxCell id="aTKwhWjxCl2psLVctp9T-15" value="deleted_at TIMESTAMP DEFAULT CURRENT_TIME_STAMP" style="shape=partialRectangle;overflow=hidden;connectable=0;fillColor=none;top=0;left=0;bottom=0;right=0;align=left;spacingLeft=6;" parent="aTKwhWjxCl2psLVctp9T-13" vertex="1">
          <mxGeometry x="30" width="400" height="30" as="geometry">
            <mxRectangle width="400" height="30" as="alternateBounds" />
          </mxGeometry>
        </mxCell>
        <mxCell id="aTKwhWjxCl2psLVctp9T-16" value="" style="shape=partialRectangle;collapsible=0;dropTarget=0;pointerEvents=0;fillColor=none;points=[[0,0.5],[1,0.5]];portConstraint=eastwest;top=0;left=0;right=0;bottom=0;" parent="C-vyLk0tnHw3VtMMgP7b-23" vertex="1">
          <mxGeometry y="360" width="430" height="30" as="geometry" />
        </mxCell>
        <mxCell id="aTKwhWjxCl2psLVctp9T-17" value="" style="shape=partialRectangle;overflow=hidden;connectable=0;fillColor=none;top=0;left=0;bottom=0;right=0;" parent="aTKwhWjxCl2psLVctp9T-16" vertex="1">
          <mxGeometry width="30" height="30" as="geometry">
            <mxRectangle width="30" height="30" as="alternateBounds" />
          </mxGeometry>
        </mxCell>
        <mxCell id="aTKwhWjxCl2psLVctp9T-18" value="created_at TIMESTAMP  DEFAULT CURRENT_TIME_STAMP" style="shape=partialRectangle;overflow=hidden;connectable=0;fillColor=none;top=0;left=0;bottom=0;right=0;align=left;spacingLeft=6;" parent="aTKwhWjxCl2psLVctp9T-16" vertex="1">
          <mxGeometry x="30" width="400" height="30" as="geometry">
            <mxRectangle width="400" height="30" as="alternateBounds" />
          </mxGeometry>
        </mxCell>
        <mxCell id="aTKwhWjxCl2psLVctp9T-19" value="" style="shape=partialRectangle;collapsible=0;dropTarget=0;pointerEvents=0;fillColor=none;points=[[0,0.5],[1,0.5]];portConstraint=eastwest;top=0;left=0;right=0;bottom=0;" parent="C-vyLk0tnHw3VtMMgP7b-23" vertex="1">
          <mxGeometry y="390" width="430" height="30" as="geometry" />
        </mxCell>
        <mxCell id="aTKwhWjxCl2psLVctp9T-20" value="" style="shape=partialRectangle;overflow=hidden;connectable=0;fillColor=none;top=0;left=0;bottom=0;right=0;" parent="aTKwhWjxCl2psLVctp9T-19" vertex="1">
          <mxGeometry width="30" height="30" as="geometry">
            <mxRectangle width="30" height="30" as="alternateBounds" />
          </mxGeometry>
        </mxCell>
        <mxCell id="aTKwhWjxCl2psLVctp9T-21" value="updated_at TIMESTAMP DEFAULT CURRENT_TIME_STAMP" style="shape=partialRectangle;overflow=hidden;connectable=0;fillColor=none;top=0;left=0;bottom=0;right=0;align=left;spacingLeft=6;" parent="aTKwhWjxCl2psLVctp9T-19" vertex="1">
          <mxGeometry x="30" width="400" height="30" as="geometry">
            <mxRectangle width="400" height="30" as="alternateBounds" />
          </mxGeometry>
        </mxCell>
        <mxCell id="Ln_gXeSGQNPCePtx27tQ-46" value="Items" style="shape=table;startSize=30;container=1;collapsible=1;childLayout=tableLayout;fixedRows=1;rowLines=0;fontStyle=1;align=center;resizeLast=1;" parent="1" vertex="1">
          <mxGeometry x="-70" y="230" width="430" height="450" as="geometry" />
        </mxCell>
        <mxCell id="Ln_gXeSGQNPCePtx27tQ-47" value="" style="shape=partialRectangle;collapsible=0;dropTarget=0;pointerEvents=0;fillColor=none;points=[[0,0.5],[1,0.5]];portConstraint=eastwest;top=0;left=0;right=0;bottom=1;" parent="Ln_gXeSGQNPCePtx27tQ-46" vertex="1">
          <mxGeometry y="30" width="430" height="30" as="geometry" />
        </mxCell>
        <mxCell id="Ln_gXeSGQNPCePtx27tQ-48" value="PK" style="shape=partialRectangle;overflow=hidden;connectable=0;fillColor=none;top=0;left=0;bottom=0;right=0;fontStyle=1;" parent="Ln_gXeSGQNPCePtx27tQ-47" vertex="1">
          <mxGeometry width="30" height="30" as="geometry">
            <mxRectangle width="30" height="30" as="alternateBounds" />
          </mxGeometry>
        </mxCell>
        <mxCell id="Ln_gXeSGQNPCePtx27tQ-49" value="ID SERIAL" style="shape=partialRectangle;overflow=hidden;connectable=0;fillColor=none;top=0;left=0;bottom=0;right=0;align=left;spacingLeft=6;fontStyle=5;" parent="Ln_gXeSGQNPCePtx27tQ-47" vertex="1">
          <mxGeometry x="30" width="400" height="30" as="geometry">
            <mxRectangle width="400" height="30" as="alternateBounds" />
          </mxGeometry>
        </mxCell>
        <mxCell id="Ln_gXeSGQNPCePtx27tQ-343" value="" style="shape=partialRectangle;collapsible=0;dropTarget=0;pointerEvents=0;fillColor=none;points=[[0,0.5],[1,0.5]];portConstraint=eastwest;top=0;left=0;right=0;bottom=1;" parent="Ln_gXeSGQNPCePtx27tQ-46" vertex="1">
          <mxGeometry y="60" width="430" height="30" as="geometry" />
        </mxCell>
        <mxCell id="Ln_gXeSGQNPCePtx27tQ-344" value="FK" style="shape=partialRectangle;overflow=hidden;connectable=0;fillColor=none;top=0;left=0;bottom=0;right=0;fontStyle=1;" parent="Ln_gXeSGQNPCePtx27tQ-343" vertex="1">
          <mxGeometry width="30" height="30" as="geometry">
            <mxRectangle width="30" height="30" as="alternateBounds" />
          </mxGeometry>
        </mxCell>
        <mxCell id="Ln_gXeSGQNPCePtx27tQ-345" value="owner_id INT NOT NULL" style="shape=partialRectangle;overflow=hidden;connectable=0;fillColor=none;top=0;left=0;bottom=0;right=0;align=left;spacingLeft=6;fontStyle=5;" parent="Ln_gXeSGQNPCePtx27tQ-343" vertex="1">
          <mxGeometry x="30" width="400" height="30" as="geometry">
            <mxRectangle width="400" height="30" as="alternateBounds" />
          </mxGeometry>
        </mxCell>
        <mxCell id="Ln_gXeSGQNPCePtx27tQ-56" value="" style="shape=partialRectangle;collapsible=0;dropTarget=0;pointerEvents=0;fillColor=none;points=[[0,0.5],[1,0.5]];portConstraint=eastwest;top=0;left=0;right=0;bottom=0;" parent="Ln_gXeSGQNPCePtx27tQ-46" vertex="1">
          <mxGeometry y="90" width="430" height="30" as="geometry" />
        </mxCell>
        <mxCell id="Ln_gXeSGQNPCePtx27tQ-57" value="" style="shape=partialRectangle;overflow=hidden;connectable=0;fillColor=none;top=0;left=0;bottom=0;right=0;" parent="Ln_gXeSGQNPCePtx27tQ-56" vertex="1">
          <mxGeometry width="30" height="30" as="geometry">
            <mxRectangle width="30" height="30" as="alternateBounds" />
          </mxGeometry>
        </mxCell>
        <mxCell id="Ln_gXeSGQNPCePtx27tQ-58" value="name VARCHAR(50) NOT NULL" style="shape=partialRectangle;overflow=hidden;connectable=0;fillColor=none;top=0;left=0;bottom=0;right=0;align=left;spacingLeft=6;" parent="Ln_gXeSGQNPCePtx27tQ-56" vertex="1">
          <mxGeometry x="30" width="400" height="30" as="geometry">
            <mxRectangle width="400" height="30" as="alternateBounds" />
          </mxGeometry>
        </mxCell>
        <mxCell id="Ln_gXeSGQNPCePtx27tQ-50" value="" style="shape=partialRectangle;collapsible=0;dropTarget=0;pointerEvents=0;fillColor=none;points=[[0,0.5],[1,0.5]];portConstraint=eastwest;top=0;left=0;right=0;bottom=0;" parent="Ln_gXeSGQNPCePtx27tQ-46" vertex="1">
          <mxGeometry y="120" width="430" height="30" as="geometry" />
        </mxCell>
        <mxCell id="Ln_gXeSGQNPCePtx27tQ-51" value="" style="shape=partialRectangle;overflow=hidden;connectable=0;fillColor=none;top=0;left=0;bottom=0;right=0;" parent="Ln_gXeSGQNPCePtx27tQ-50" vertex="1">
          <mxGeometry width="30" height="30" as="geometry">
            <mxRectangle width="30" height="30" as="alternateBounds" />
          </mxGeometry>
        </mxCell>
        <mxCell id="Ln_gXeSGQNPCePtx27tQ-52" value="origin INT NOT NULL" style="shape=partialRectangle;overflow=hidden;connectable=0;fillColor=none;top=0;left=0;bottom=0;right=0;align=left;spacingLeft=6;" parent="Ln_gXeSGQNPCePtx27tQ-50" vertex="1">
          <mxGeometry x="30" width="400" height="30" as="geometry">
            <mxRectangle width="400" height="30" as="alternateBounds" />
          </mxGeometry>
        </mxCell>
        <mxCell id="Ln_gXeSGQNPCePtx27tQ-53" value="" style="shape=partialRectangle;collapsible=0;dropTarget=0;pointerEvents=0;fillColor=none;points=[[0,0.5],[1,0.5]];portConstraint=eastwest;top=0;left=0;right=0;bottom=0;" parent="Ln_gXeSGQNPCePtx27tQ-46" vertex="1">
          <mxGeometry y="150" width="430" height="30" as="geometry" />
        </mxCell>
        <mxCell id="Ln_gXeSGQNPCePtx27tQ-54" value="" style="shape=partialRectangle;overflow=hidden;connectable=0;fillColor=none;top=0;left=0;bottom=0;right=0;" parent="Ln_gXeSGQNPCePtx27tQ-53" vertex="1">
          <mxGeometry width="30" height="30" as="geometry">
            <mxRectangle width="30" height="30" as="alternateBounds" />
          </mxGeometry>
        </mxCell>
        <mxCell id="Ln_gXeSGQNPCePtx27tQ-55" value="destination INT NOT NULL" style="shape=partialRectangle;overflow=hidden;connectable=0;fillColor=none;top=0;left=0;bottom=0;right=0;align=left;spacingLeft=6;" parent="Ln_gXeSGQNPCePtx27tQ-53" vertex="1">
          <mxGeometry x="30" width="400" height="30" as="geometry">
            <mxRectangle width="400" height="30" as="alternateBounds" />
          </mxGeometry>
        </mxCell>
        <mxCell id="Ln_gXeSGQNPCePtx27tQ-59" value="" style="shape=partialRectangle;collapsible=0;dropTarget=0;pointerEvents=0;fillColor=none;points=[[0,0.5],[1,0.5]];portConstraint=eastwest;top=0;left=0;right=0;bottom=0;" parent="Ln_gXeSGQNPCePtx27tQ-46" vertex="1">
          <mxGeometry y="180" width="430" height="30" as="geometry" />
        </mxCell>
        <mxCell id="Ln_gXeSGQNPCePtx27tQ-60" value="" style="shape=partialRectangle;overflow=hidden;connectable=0;fillColor=none;top=0;left=0;bottom=0;right=0;" parent="Ln_gXeSGQNPCePtx27tQ-59" vertex="1">
          <mxGeometry width="30" height="30" as="geometry">
            <mxRectangle width="30" height="30" as="alternateBounds" />
          </mxGeometry>
        </mxCell>
        <mxCell id="Ln_gXeSGQNPCePtx27tQ-61" value="weight FLOAT NOT NULL" style="shape=partialRectangle;overflow=hidden;connectable=0;fillColor=none;top=0;left=0;bottom=0;right=0;align=left;spacingLeft=6;" parent="Ln_gXeSGQNPCePtx27tQ-59" vertex="1">
          <mxGeometry x="30" width="400" height="30" as="geometry">
            <mxRectangle width="400" height="30" as="alternateBounds" />
          </mxGeometry>
        </mxCell>
        <mxCell id="Ln_gXeSGQNPCePtx27tQ-83" value="" style="shape=partialRectangle;collapsible=0;dropTarget=0;pointerEvents=0;fillColor=none;points=[[0,0.5],[1,0.5]];portConstraint=eastwest;top=0;left=0;right=0;bottom=0;" parent="Ln_gXeSGQNPCePtx27tQ-46" vertex="1">
          <mxGeometry y="210" width="430" height="30" as="geometry" />
        </mxCell>
        <mxCell id="Ln_gXeSGQNPCePtx27tQ-84" value="" style="shape=partialRectangle;overflow=hidden;connectable=0;fillColor=none;top=0;left=0;bottom=0;right=0;" parent="Ln_gXeSGQNPCePtx27tQ-83" vertex="1">
          <mxGeometry width="30" height="30" as="geometry">
            <mxRectangle width="30" height="30" as="alternateBounds" />
          </mxGeometry>
        </mxCell>
        <mxCell id="Ln_gXeSGQNPCePtx27tQ-85" value="length FLOAT NOT NULL" style="shape=partialRectangle;overflow=hidden;connectable=0;fillColor=none;top=0;left=0;bottom=0;right=0;align=left;spacingLeft=6;" parent="Ln_gXeSGQNPCePtx27tQ-83" vertex="1">
          <mxGeometry x="30" width="400" height="30" as="geometry">
            <mxRectangle width="400" height="30" as="alternateBounds" />
          </mxGeometry>
        </mxCell>
        <mxCell id="Ln_gXeSGQNPCePtx27tQ-86" value="" style="shape=partialRectangle;collapsible=0;dropTarget=0;pointerEvents=0;fillColor=none;points=[[0,0.5],[1,0.5]];portConstraint=eastwest;top=0;left=0;right=0;bottom=0;" parent="Ln_gXeSGQNPCePtx27tQ-46" vertex="1">
          <mxGeometry y="240" width="430" height="30" as="geometry" />
        </mxCell>
        <mxCell id="Ln_gXeSGQNPCePtx27tQ-87" value="" style="shape=partialRectangle;overflow=hidden;connectable=0;fillColor=none;top=0;left=0;bottom=0;right=0;" parent="Ln_gXeSGQNPCePtx27tQ-86" vertex="1">
          <mxGeometry width="30" height="30" as="geometry">
            <mxRectangle width="30" height="30" as="alternateBounds" />
          </mxGeometry>
        </mxCell>
        <mxCell id="Ln_gXeSGQNPCePtx27tQ-88" value="height FLOAT NOT NULL" style="shape=partialRectangle;overflow=hidden;connectable=0;fillColor=none;top=0;left=0;bottom=0;right=0;align=left;spacingLeft=6;" parent="Ln_gXeSGQNPCePtx27tQ-86" vertex="1">
          <mxGeometry x="30" width="400" height="30" as="geometry">
            <mxRectangle width="400" height="30" as="alternateBounds" />
          </mxGeometry>
        </mxCell>
        <mxCell id="Ln_gXeSGQNPCePtx27tQ-62" value="" style="shape=partialRectangle;collapsible=0;dropTarget=0;pointerEvents=0;fillColor=none;points=[[0,0.5],[1,0.5]];portConstraint=eastwest;top=0;left=0;right=0;bottom=0;" parent="Ln_gXeSGQNPCePtx27tQ-46" vertex="1">
          <mxGeometry y="270" width="430" height="30" as="geometry" />
        </mxCell>
        <mxCell id="Ln_gXeSGQNPCePtx27tQ-63" value="" style="shape=partialRectangle;overflow=hidden;connectable=0;fillColor=none;top=0;left=0;bottom=0;right=0;" parent="Ln_gXeSGQNPCePtx27tQ-62" vertex="1">
          <mxGeometry width="30" height="30" as="geometry">
            <mxRectangle width="30" height="30" as="alternateBounds" />
          </mxGeometry>
        </mxCell>
        <mxCell id="Ln_gXeSGQNPCePtx27tQ-64" value="full_address VARCHAR(100)" style="shape=partialRectangle;overflow=hidden;connectable=0;fillColor=none;top=0;left=0;bottom=0;right=0;align=left;spacingLeft=6;" parent="Ln_gXeSGQNPCePtx27tQ-62" vertex="1">
          <mxGeometry x="30" width="400" height="30" as="geometry">
            <mxRectangle width="400" height="30" as="alternateBounds" />
          </mxGeometry>
        </mxCell>
        <mxCell id="Ln_gXeSGQNPCePtx27tQ-71" value="" style="shape=partialRectangle;collapsible=0;dropTarget=0;pointerEvents=0;fillColor=none;points=[[0,0.5],[1,0.5]];portConstraint=eastwest;top=0;left=0;right=0;bottom=0;" parent="Ln_gXeSGQNPCePtx27tQ-46" vertex="1">
          <mxGeometry y="300" width="430" height="30" as="geometry" />
        </mxCell>
        <mxCell id="Ln_gXeSGQNPCePtx27tQ-72" value="" style="shape=partialRectangle;overflow=hidden;connectable=0;fillColor=none;top=0;left=0;bottom=0;right=0;" parent="Ln_gXeSGQNPCePtx27tQ-71" vertex="1">
          <mxGeometry width="30" height="30" as="geometry">
            <mxRectangle width="30" height="30" as="alternateBounds" />
          </mxGeometry>
        </mxCell>
        <mxCell id="Ln_gXeSGQNPCePtx27tQ-73" value="comments VARCHAR(200)" style="shape=partialRectangle;overflow=hidden;connectable=0;fillColor=none;top=0;left=0;bottom=0;right=0;align=left;spacingLeft=6;" parent="Ln_gXeSGQNPCePtx27tQ-71" vertex="1">
          <mxGeometry x="30" width="400" height="30" as="geometry">
            <mxRectangle width="400" height="30" as="alternateBounds" />
          </mxGeometry>
        </mxCell>
        <mxCell id="Ln_gXeSGQNPCePtx27tQ-89" value="" style="shape=partialRectangle;collapsible=0;dropTarget=0;pointerEvents=0;fillColor=none;points=[[0,0.5],[1,0.5]];portConstraint=eastwest;top=0;left=0;right=0;bottom=0;" parent="Ln_gXeSGQNPCePtx27tQ-46" vertex="1">
          <mxGeometry y="330" width="430" height="30" as="geometry" />
        </mxCell>
        <mxCell id="Ln_gXeSGQNPCePtx27tQ-90" value="" style="shape=partialRectangle;overflow=hidden;connectable=0;fillColor=none;top=0;left=0;bottom=0;right=0;" parent="Ln_gXeSGQNPCePtx27tQ-89" vertex="1">
          <mxGeometry width="30" height="30" as="geometry">
            <mxRectangle width="30" height="30" as="alternateBounds" />
          </mxGeometry>
        </mxCell>
        <mxCell id="Ln_gXeSGQNPCePtx27tQ-91" value="photo TEXT NOT NULL" style="shape=partialRectangle;overflow=hidden;connectable=0;fillColor=none;top=0;left=0;bottom=0;right=0;align=left;spacingLeft=6;" parent="Ln_gXeSGQNPCePtx27tQ-89" vertex="1">
          <mxGeometry x="30" width="400" height="30" as="geometry">
            <mxRectangle width="400" height="30" as="alternateBounds" />
          </mxGeometry>
        </mxCell>
        <mxCell id="Ln_gXeSGQNPCePtx27tQ-74" value="" style="shape=partialRectangle;collapsible=0;dropTarget=0;pointerEvents=0;fillColor=none;points=[[0,0.5],[1,0.5]];portConstraint=eastwest;top=0;left=0;right=0;bottom=0;" parent="Ln_gXeSGQNPCePtx27tQ-46" vertex="1">
          <mxGeometry y="360" width="430" height="30" as="geometry" />
        </mxCell>
        <mxCell id="Ln_gXeSGQNPCePtx27tQ-75" value="" style="shape=partialRectangle;overflow=hidden;connectable=0;fillColor=none;top=0;left=0;bottom=0;right=0;" parent="Ln_gXeSGQNPCePtx27tQ-74" vertex="1">
          <mxGeometry width="30" height="30" as="geometry">
            <mxRectangle width="30" height="30" as="alternateBounds" />
          </mxGeometry>
        </mxCell>
        <mxCell id="Ln_gXeSGQNPCePtx27tQ-76" value="deleted_at TIMESTAMP DEFAULT CURRENT_TIME_STAMP" style="shape=partialRectangle;overflow=hidden;connectable=0;fillColor=none;top=0;left=0;bottom=0;right=0;align=left;spacingLeft=6;" parent="Ln_gXeSGQNPCePtx27tQ-74" vertex="1">
          <mxGeometry x="30" width="400" height="30" as="geometry">
            <mxRectangle width="400" height="30" as="alternateBounds" />
          </mxGeometry>
        </mxCell>
        <mxCell id="Ln_gXeSGQNPCePtx27tQ-77" value="" style="shape=partialRectangle;collapsible=0;dropTarget=0;pointerEvents=0;fillColor=none;points=[[0,0.5],[1,0.5]];portConstraint=eastwest;top=0;left=0;right=0;bottom=0;" parent="Ln_gXeSGQNPCePtx27tQ-46" vertex="1">
          <mxGeometry y="390" width="430" height="30" as="geometry" />
        </mxCell>
        <mxCell id="Ln_gXeSGQNPCePtx27tQ-78" value="" style="shape=partialRectangle;overflow=hidden;connectable=0;fillColor=none;top=0;left=0;bottom=0;right=0;" parent="Ln_gXeSGQNPCePtx27tQ-77" vertex="1">
          <mxGeometry width="30" height="30" as="geometry">
            <mxRectangle width="30" height="30" as="alternateBounds" />
          </mxGeometry>
        </mxCell>
        <mxCell id="Ln_gXeSGQNPCePtx27tQ-79" value="created_at TIMESTAMP  DEFAULT CURRENT_TIME_STAMP" style="shape=partialRectangle;overflow=hidden;connectable=0;fillColor=none;top=0;left=0;bottom=0;right=0;align=left;spacingLeft=6;" parent="Ln_gXeSGQNPCePtx27tQ-77" vertex="1">
          <mxGeometry x="30" width="400" height="30" as="geometry">
            <mxRectangle width="400" height="30" as="alternateBounds" />
          </mxGeometry>
        </mxCell>
        <mxCell id="Ln_gXeSGQNPCePtx27tQ-80" value="" style="shape=partialRectangle;collapsible=0;dropTarget=0;pointerEvents=0;fillColor=none;points=[[0,0.5],[1,0.5]];portConstraint=eastwest;top=0;left=0;right=0;bottom=0;" parent="Ln_gXeSGQNPCePtx27tQ-46" vertex="1">
          <mxGeometry y="420" width="430" height="30" as="geometry" />
        </mxCell>
        <mxCell id="Ln_gXeSGQNPCePtx27tQ-81" value="" style="shape=partialRectangle;overflow=hidden;connectable=0;fillColor=none;top=0;left=0;bottom=0;right=0;" parent="Ln_gXeSGQNPCePtx27tQ-80" vertex="1">
          <mxGeometry width="30" height="30" as="geometry">
            <mxRectangle width="30" height="30" as="alternateBounds" />
          </mxGeometry>
        </mxCell>
        <mxCell id="Ln_gXeSGQNPCePtx27tQ-82" value="updated_at TIMESTAMP DEFAULT CURRENT_TIME_STAMP" style="shape=partialRectangle;overflow=hidden;connectable=0;fillColor=none;top=0;left=0;bottom=0;right=0;align=left;spacingLeft=6;" parent="Ln_gXeSGQNPCePtx27tQ-80" vertex="1">
          <mxGeometry x="30" width="400" height="30" as="geometry">
            <mxRectangle width="400" height="30" as="alternateBounds" />
          </mxGeometry>
        </mxCell>
        <mxCell id="Ln_gXeSGQNPCePtx27tQ-346" style="edgeStyle=orthogonalEdgeStyle;rounded=0;orthogonalLoop=1;jettySize=auto;html=1;entryX=1;entryY=0.5;entryDx=0;entryDy=0;fontFamily=Helvetica;fontSize=12;fontColor=default;fontStyle=1;exitX=0.25;exitY=0;exitDx=0;exitDy=0;" parent="1" source="Ln_gXeSGQNPCePtx27tQ-92" target="Ln_gXeSGQNPCePtx27tQ-297" edge="1">
          <mxGeometry relative="1" as="geometry" />
        </mxCell>
        <mxCell id="Ln_gXeSGQNPCePtx27tQ-349" value="&lt;font style=&quot;font-size: 36px;&quot;&gt;n : 1&lt;/font&gt;" style="edgeLabel;html=1;align=center;verticalAlign=middle;resizable=0;points=[];strokeColor=default;fontFamily=Helvetica;fontSize=12;fontColor=default;fillColor=none;" parent="Ln_gXeSGQNPCePtx27tQ-346" vertex="1" connectable="0">
          <mxGeometry x="0.3171" relative="1" as="geometry">
            <mxPoint as="offset" />
          </mxGeometry>
        </mxCell>
        <mxCell id="Ln_gXeSGQNPCePtx27tQ-347" value="&lt;font style=&quot;font-size: 36px;&quot;&gt;n : 1&lt;/font&gt;" style="edgeStyle=orthogonalEdgeStyle;rounded=0;orthogonalLoop=1;jettySize=auto;html=1;entryX=1;entryY=0.5;entryDx=0;entryDy=0;fontFamily=Helvetica;fontSize=12;fontColor=default;fontStyle=1;" parent="1" source="Ln_gXeSGQNPCePtx27tQ-92" target="Ln_gXeSGQNPCePtx27tQ-343" edge="1">
          <mxGeometry relative="1" as="geometry" />
        </mxCell>
        <mxCell id="Ln_gXeSGQNPCePtx27tQ-348" value="&lt;font style=&quot;font-size: 36px;&quot;&gt;1 : self join&lt;/font&gt;" style="edgeStyle=orthogonalEdgeStyle;rounded=0;orthogonalLoop=1;jettySize=auto;html=1;entryX=0.25;entryY=0;entryDx=0;entryDy=0;fontFamily=Helvetica;fontSize=12;fontColor=default;fontStyle=1;exitX=0.75;exitY=0;exitDx=0;exitDy=0;" parent="1" source="Ln_gXeSGQNPCePtx27tQ-92" target="Ln_gXeSGQNPCePtx27tQ-224" edge="1">
          <mxGeometry relative="1" as="geometry">
            <Array as="points">
              <mxPoint x="824" y="-40" />
              <mxPoint x="1118" y="-40" />
            </Array>
          </mxGeometry>
        </mxCell>
        <mxCell id="Ln_gXeSGQNPCePtx27tQ-92" value="Persons" style="shape=table;startSize=30;container=1;collapsible=1;childLayout=tableLayout;fixedRows=1;rowLines=0;fontStyle=1;align=center;resizeLast=1;" parent="1" vertex="1">
          <mxGeometry x="501" y="20" width="430" height="390" as="geometry" />
        </mxCell>
        <mxCell id="Ln_gXeSGQNPCePtx27tQ-93" value="" style="shape=partialRectangle;collapsible=0;dropTarget=0;pointerEvents=0;fillColor=none;points=[[0,0.5],[1,0.5]];portConstraint=eastwest;top=0;left=0;right=0;bottom=1;" parent="Ln_gXeSGQNPCePtx27tQ-92" vertex="1">
          <mxGeometry y="30" width="430" height="30" as="geometry" />
        </mxCell>
        <mxCell id="Ln_gXeSGQNPCePtx27tQ-94" value="PK" style="shape=partialRectangle;overflow=hidden;connectable=0;fillColor=none;top=0;left=0;bottom=0;right=0;fontStyle=1;" parent="Ln_gXeSGQNPCePtx27tQ-93" vertex="1">
          <mxGeometry width="30" height="30" as="geometry">
            <mxRectangle width="30" height="30" as="alternateBounds" />
          </mxGeometry>
        </mxCell>
        <mxCell id="Ln_gXeSGQNPCePtx27tQ-95" value="ID SERIAL" style="shape=partialRectangle;overflow=hidden;connectable=0;fillColor=none;top=0;left=0;bottom=0;right=0;align=left;spacingLeft=6;fontStyle=5;" parent="Ln_gXeSGQNPCePtx27tQ-93" vertex="1">
          <mxGeometry x="30" width="400" height="30" as="geometry">
            <mxRectangle width="400" height="30" as="alternateBounds" />
          </mxGeometry>
        </mxCell>
        <mxCell id="Ln_gXeSGQNPCePtx27tQ-96" value="" style="shape=partialRectangle;collapsible=0;dropTarget=0;pointerEvents=0;fillColor=none;points=[[0,0.5],[1,0.5]];portConstraint=eastwest;top=0;left=0;right=0;bottom=0;" parent="Ln_gXeSGQNPCePtx27tQ-92" vertex="1">
          <mxGeometry y="60" width="430" height="30" as="geometry" />
        </mxCell>
        <mxCell id="Ln_gXeSGQNPCePtx27tQ-97" value="" style="shape=partialRectangle;overflow=hidden;connectable=0;fillColor=none;top=0;left=0;bottom=0;right=0;" parent="Ln_gXeSGQNPCePtx27tQ-96" vertex="1">
          <mxGeometry width="30" height="30" as="geometry">
            <mxRectangle width="30" height="30" as="alternateBounds" />
          </mxGeometry>
        </mxCell>
        <mxCell id="Ln_gXeSGQNPCePtx27tQ-98" value="first_name VARCHAR(50) NOT NULL" style="shape=partialRectangle;overflow=hidden;connectable=0;fillColor=none;top=0;left=0;bottom=0;right=0;align=left;spacingLeft=6;" parent="Ln_gXeSGQNPCePtx27tQ-96" vertex="1">
          <mxGeometry x="30" width="400" height="30" as="geometry">
            <mxRectangle width="400" height="30" as="alternateBounds" />
          </mxGeometry>
        </mxCell>
        <mxCell id="Jbtmd5UkiH4nnKv5t13t-22" value="" style="shape=partialRectangle;collapsible=0;dropTarget=0;pointerEvents=0;fillColor=none;points=[[0,0.5],[1,0.5]];portConstraint=eastwest;top=0;left=0;right=0;bottom=0;" vertex="1" parent="Ln_gXeSGQNPCePtx27tQ-92">
          <mxGeometry y="90" width="430" height="30" as="geometry" />
        </mxCell>
        <mxCell id="Jbtmd5UkiH4nnKv5t13t-23" value="" style="shape=partialRectangle;overflow=hidden;connectable=0;fillColor=none;top=0;left=0;bottom=0;right=0;" vertex="1" parent="Jbtmd5UkiH4nnKv5t13t-22">
          <mxGeometry width="30" height="30" as="geometry">
            <mxRectangle width="30" height="30" as="alternateBounds" />
          </mxGeometry>
        </mxCell>
        <mxCell id="Jbtmd5UkiH4nnKv5t13t-24" value="last_name VARCHAR(50) NOT NULL" style="shape=partialRectangle;overflow=hidden;connectable=0;fillColor=none;top=0;left=0;bottom=0;right=0;align=left;spacingLeft=6;" vertex="1" parent="Jbtmd5UkiH4nnKv5t13t-22">
          <mxGeometry x="30" width="400" height="30" as="geometry">
            <mxRectangle width="400" height="30" as="alternateBounds" />
          </mxGeometry>
        </mxCell>
        <mxCell id="Ln_gXeSGQNPCePtx27tQ-99" value="" style="shape=partialRectangle;collapsible=0;dropTarget=0;pointerEvents=0;fillColor=none;points=[[0,0.5],[1,0.5]];portConstraint=eastwest;top=0;left=0;right=0;bottom=0;" parent="Ln_gXeSGQNPCePtx27tQ-92" vertex="1">
          <mxGeometry y="120" width="430" height="30" as="geometry" />
        </mxCell>
        <mxCell id="Ln_gXeSGQNPCePtx27tQ-100" value="" style="shape=partialRectangle;overflow=hidden;connectable=0;fillColor=none;top=0;left=0;bottom=0;right=0;" parent="Ln_gXeSGQNPCePtx27tQ-99" vertex="1">
          <mxGeometry width="30" height="30" as="geometry">
            <mxRectangle width="30" height="30" as="alternateBounds" />
          </mxGeometry>
        </mxCell>
        <mxCell id="Ln_gXeSGQNPCePtx27tQ-101" value="email VARCHAR(50) NOT NULL UNIQUE" style="shape=partialRectangle;overflow=hidden;connectable=0;fillColor=none;top=0;left=0;bottom=0;right=0;align=left;spacingLeft=6;" parent="Ln_gXeSGQNPCePtx27tQ-99" vertex="1">
          <mxGeometry x="30" width="400" height="30" as="geometry">
            <mxRectangle width="400" height="30" as="alternateBounds" />
          </mxGeometry>
        </mxCell>
        <mxCell id="Ln_gXeSGQNPCePtx27tQ-102" value="" style="shape=partialRectangle;collapsible=0;dropTarget=0;pointerEvents=0;fillColor=none;points=[[0,0.5],[1,0.5]];portConstraint=eastwest;top=0;left=0;right=0;bottom=0;" parent="Ln_gXeSGQNPCePtx27tQ-92" vertex="1">
          <mxGeometry y="150" width="430" height="30" as="geometry" />
        </mxCell>
        <mxCell id="Ln_gXeSGQNPCePtx27tQ-103" value="" style="shape=partialRectangle;overflow=hidden;connectable=0;fillColor=none;top=0;left=0;bottom=0;right=0;" parent="Ln_gXeSGQNPCePtx27tQ-102" vertex="1">
          <mxGeometry width="30" height="30" as="geometry">
            <mxRectangle width="30" height="30" as="alternateBounds" />
          </mxGeometry>
        </mxCell>
        <mxCell id="Ln_gXeSGQNPCePtx27tQ-104" value="phone VARCHAR(15) NOT NULL UNIQUE" style="shape=partialRectangle;overflow=hidden;connectable=0;fillColor=none;top=0;left=0;bottom=0;right=0;align=left;spacingLeft=6;" parent="Ln_gXeSGQNPCePtx27tQ-102" vertex="1">
          <mxGeometry x="30" width="400" height="30" as="geometry">
            <mxRectangle width="400" height="30" as="alternateBounds" />
          </mxGeometry>
        </mxCell>
        <mxCell id="Ln_gXeSGQNPCePtx27tQ-105" value="" style="shape=partialRectangle;collapsible=0;dropTarget=0;pointerEvents=0;fillColor=none;points=[[0,0.5],[1,0.5]];portConstraint=eastwest;top=0;left=0;right=0;bottom=0;" parent="Ln_gXeSGQNPCePtx27tQ-92" vertex="1">
          <mxGeometry y="180" width="430" height="30" as="geometry" />
        </mxCell>
        <mxCell id="Ln_gXeSGQNPCePtx27tQ-106" value="" style="shape=partialRectangle;overflow=hidden;connectable=0;fillColor=none;top=0;left=0;bottom=0;right=0;" parent="Ln_gXeSGQNPCePtx27tQ-105" vertex="1">
          <mxGeometry width="30" height="30" as="geometry">
            <mxRectangle width="30" height="30" as="alternateBounds" />
          </mxGeometry>
        </mxCell>
        <mxCell id="Ln_gXeSGQNPCePtx27tQ-107" value="address VARCHAR(100) NOT NULL" style="shape=partialRectangle;overflow=hidden;connectable=0;fillColor=none;top=0;left=0;bottom=0;right=0;align=left;spacingLeft=6;" parent="Ln_gXeSGQNPCePtx27tQ-105" vertex="1">
          <mxGeometry x="30" width="400" height="30" as="geometry">
            <mxRectangle width="400" height="30" as="alternateBounds" />
          </mxGeometry>
        </mxCell>
        <mxCell id="Ln_gXeSGQNPCePtx27tQ-169" value="" style="shape=partialRectangle;collapsible=0;dropTarget=0;pointerEvents=0;fillColor=none;points=[[0,0.5],[1,0.5]];portConstraint=eastwest;top=0;left=0;right=0;bottom=0;" parent="Ln_gXeSGQNPCePtx27tQ-92" vertex="1">
          <mxGeometry y="210" width="430" height="30" as="geometry" />
        </mxCell>
        <mxCell id="Ln_gXeSGQNPCePtx27tQ-170" value="" style="shape=partialRectangle;overflow=hidden;connectable=0;fillColor=none;top=0;left=0;bottom=0;right=0;" parent="Ln_gXeSGQNPCePtx27tQ-169" vertex="1">
          <mxGeometry width="30" height="30" as="geometry">
            <mxRectangle width="30" height="30" as="alternateBounds" />
          </mxGeometry>
        </mxCell>
        <mxCell id="Ln_gXeSGQNPCePtx27tQ-171" value="password VARCHAR(255) NOT NULL" style="shape=partialRectangle;overflow=hidden;connectable=0;fillColor=none;top=0;left=0;bottom=0;right=0;align=left;spacingLeft=6;" parent="Ln_gXeSGQNPCePtx27tQ-169" vertex="1">
          <mxGeometry x="30" width="400" height="30" as="geometry">
            <mxRectangle width="400" height="30" as="alternateBounds" />
          </mxGeometry>
        </mxCell>
        <mxCell id="Ln_gXeSGQNPCePtx27tQ-190" style="shape=partialRectangle;collapsible=0;dropTarget=0;pointerEvents=0;fillColor=none;points=[[0,0.5],[1,0.5]];portConstraint=eastwest;top=0;left=0;right=0;bottom=0;" parent="Ln_gXeSGQNPCePtx27tQ-92" vertex="1">
          <mxGeometry y="240" width="430" height="30" as="geometry" />
        </mxCell>
        <mxCell id="Ln_gXeSGQNPCePtx27tQ-191" style="shape=partialRectangle;overflow=hidden;connectable=0;fillColor=none;top=0;left=0;bottom=0;right=0;" parent="Ln_gXeSGQNPCePtx27tQ-190" vertex="1">
          <mxGeometry width="30" height="30" as="geometry">
            <mxRectangle width="30" height="30" as="alternateBounds" />
          </mxGeometry>
        </mxCell>
        <mxCell id="Ln_gXeSGQNPCePtx27tQ-192" value="account_status INT NOT NULL" style="shape=partialRectangle;overflow=hidden;connectable=0;fillColor=none;top=0;left=0;bottom=0;right=0;align=left;spacingLeft=6;" parent="Ln_gXeSGQNPCePtx27tQ-190" vertex="1">
          <mxGeometry x="30" width="400" height="30" as="geometry">
            <mxRectangle width="400" height="30" as="alternateBounds" />
          </mxGeometry>
        </mxCell>
        <mxCell id="Jbtmd5UkiH4nnKv5t13t-25" value="" style="shape=partialRectangle;collapsible=0;dropTarget=0;pointerEvents=0;fillColor=none;points=[[0,0.5],[1,0.5]];portConstraint=eastwest;top=0;left=0;right=0;bottom=0;" vertex="1" parent="Ln_gXeSGQNPCePtx27tQ-92">
          <mxGeometry y="270" width="430" height="30" as="geometry" />
        </mxCell>
        <mxCell id="Jbtmd5UkiH4nnKv5t13t-26" value="" style="shape=partialRectangle;overflow=hidden;connectable=0;fillColor=none;top=0;left=0;bottom=0;right=0;" vertex="1" parent="Jbtmd5UkiH4nnKv5t13t-25">
          <mxGeometry width="30" height="30" as="geometry">
            <mxRectangle width="30" height="30" as="alternateBounds" />
          </mxGeometry>
        </mxCell>
        <mxCell id="Jbtmd5UkiH4nnKv5t13t-27" value="role VARCHAR(10) NOT NULL DEFAULT &#39;User&#39;" style="shape=partialRectangle;overflow=hidden;connectable=0;fillColor=none;top=0;left=0;bottom=0;right=0;align=left;spacingLeft=6;" vertex="1" parent="Jbtmd5UkiH4nnKv5t13t-25">
          <mxGeometry x="30" width="400" height="30" as="geometry">
            <mxRectangle width="400" height="30" as="alternateBounds" />
          </mxGeometry>
        </mxCell>
        <mxCell id="Ln_gXeSGQNPCePtx27tQ-126" value="" style="shape=partialRectangle;collapsible=0;dropTarget=0;pointerEvents=0;fillColor=none;points=[[0,0.5],[1,0.5]];portConstraint=eastwest;top=0;left=0;right=0;bottom=0;" parent="Ln_gXeSGQNPCePtx27tQ-92" vertex="1">
          <mxGeometry y="300" width="430" height="30" as="geometry" />
        </mxCell>
        <mxCell id="Ln_gXeSGQNPCePtx27tQ-127" value="" style="shape=partialRectangle;overflow=hidden;connectable=0;fillColor=none;top=0;left=0;bottom=0;right=0;" parent="Ln_gXeSGQNPCePtx27tQ-126" vertex="1">
          <mxGeometry width="30" height="30" as="geometry">
            <mxRectangle width="30" height="30" as="alternateBounds" />
          </mxGeometry>
        </mxCell>
        <mxCell id="Ln_gXeSGQNPCePtx27tQ-128" value="deleted_at TIMESTAMP DEFAULT CURRENT_TIME_STAMP" style="shape=partialRectangle;overflow=hidden;connectable=0;fillColor=none;top=0;left=0;bottom=0;right=0;align=left;spacingLeft=6;" parent="Ln_gXeSGQNPCePtx27tQ-126" vertex="1">
          <mxGeometry x="30" width="400" height="30" as="geometry">
            <mxRectangle width="400" height="30" as="alternateBounds" />
          </mxGeometry>
        </mxCell>
        <mxCell id="Ln_gXeSGQNPCePtx27tQ-129" value="" style="shape=partialRectangle;collapsible=0;dropTarget=0;pointerEvents=0;fillColor=none;points=[[0,0.5],[1,0.5]];portConstraint=eastwest;top=0;left=0;right=0;bottom=0;" parent="Ln_gXeSGQNPCePtx27tQ-92" vertex="1">
          <mxGeometry y="330" width="430" height="30" as="geometry" />
        </mxCell>
        <mxCell id="Ln_gXeSGQNPCePtx27tQ-130" value="" style="shape=partialRectangle;overflow=hidden;connectable=0;fillColor=none;top=0;left=0;bottom=0;right=0;" parent="Ln_gXeSGQNPCePtx27tQ-129" vertex="1">
          <mxGeometry width="30" height="30" as="geometry">
            <mxRectangle width="30" height="30" as="alternateBounds" />
          </mxGeometry>
        </mxCell>
        <mxCell id="Ln_gXeSGQNPCePtx27tQ-131" value="created_at TIMESTAMP  DEFAULT CURRENT_TIME_STAMP" style="shape=partialRectangle;overflow=hidden;connectable=0;fillColor=none;top=0;left=0;bottom=0;right=0;align=left;spacingLeft=6;" parent="Ln_gXeSGQNPCePtx27tQ-129" vertex="1">
          <mxGeometry x="30" width="400" height="30" as="geometry">
            <mxRectangle width="400" height="30" as="alternateBounds" />
          </mxGeometry>
        </mxCell>
        <mxCell id="Ln_gXeSGQNPCePtx27tQ-132" value="" style="shape=partialRectangle;collapsible=0;dropTarget=0;pointerEvents=0;fillColor=none;points=[[0,0.5],[1,0.5]];portConstraint=eastwest;top=0;left=0;right=0;bottom=0;" parent="Ln_gXeSGQNPCePtx27tQ-92" vertex="1">
          <mxGeometry y="360" width="430" height="30" as="geometry" />
        </mxCell>
        <mxCell id="Ln_gXeSGQNPCePtx27tQ-133" value="" style="shape=partialRectangle;overflow=hidden;connectable=0;fillColor=none;top=0;left=0;bottom=0;right=0;" parent="Ln_gXeSGQNPCePtx27tQ-132" vertex="1">
          <mxGeometry width="30" height="30" as="geometry">
            <mxRectangle width="30" height="30" as="alternateBounds" />
          </mxGeometry>
        </mxCell>
        <mxCell id="Ln_gXeSGQNPCePtx27tQ-134" value="updated_at TIMESTAMP DEFAULT CURRENT_TIME_STAMP" style="shape=partialRectangle;overflow=hidden;connectable=0;fillColor=none;top=0;left=0;bottom=0;right=0;align=left;spacingLeft=6;" parent="Ln_gXeSGQNPCePtx27tQ-132" vertex="1">
          <mxGeometry x="30" width="400" height="30" as="geometry">
            <mxRectangle width="400" height="30" as="alternateBounds" />
          </mxGeometry>
        </mxCell>
        <mxCell id="Ln_gXeSGQNPCePtx27tQ-193" value="Rates" style="shape=table;startSize=30;container=1;collapsible=1;childLayout=tableLayout;fixedRows=1;rowLines=0;fontStyle=1;align=center;resizeLast=1;" parent="1" vertex="1">
          <mxGeometry x="490" y="510" width="430" height="180" as="geometry" />
        </mxCell>
        <mxCell id="Ln_gXeSGQNPCePtx27tQ-194" value="" style="shape=partialRectangle;collapsible=0;dropTarget=0;pointerEvents=0;fillColor=none;points=[[0,0.5],[1,0.5]];portConstraint=eastwest;top=0;left=0;right=0;bottom=1;" parent="Ln_gXeSGQNPCePtx27tQ-193" vertex="1">
          <mxGeometry y="30" width="430" height="30" as="geometry" />
        </mxCell>
        <mxCell id="Ln_gXeSGQNPCePtx27tQ-195" value="PK" style="shape=partialRectangle;overflow=hidden;connectable=0;fillColor=none;top=0;left=0;bottom=0;right=0;fontStyle=1;" parent="Ln_gXeSGQNPCePtx27tQ-194" vertex="1">
          <mxGeometry width="30" height="30" as="geometry">
            <mxRectangle width="30" height="30" as="alternateBounds" />
          </mxGeometry>
        </mxCell>
        <mxCell id="Ln_gXeSGQNPCePtx27tQ-196" value="ID SERIAL" style="shape=partialRectangle;overflow=hidden;connectable=0;fillColor=none;top=0;left=0;bottom=0;right=0;align=left;spacingLeft=6;fontStyle=5;" parent="Ln_gXeSGQNPCePtx27tQ-194" vertex="1">
          <mxGeometry x="30" width="400" height="30" as="geometry">
            <mxRectangle width="400" height="30" as="alternateBounds" />
          </mxGeometry>
        </mxCell>
        <mxCell id="Ln_gXeSGQNPCePtx27tQ-352" value="" style="shape=partialRectangle;collapsible=0;dropTarget=0;pointerEvents=0;fillColor=none;points=[[0,0.5],[1,0.5]];portConstraint=eastwest;top=0;left=0;right=0;bottom=1;" parent="Ln_gXeSGQNPCePtx27tQ-193" vertex="1">
          <mxGeometry y="60" width="430" height="30" as="geometry" />
        </mxCell>
        <mxCell id="Ln_gXeSGQNPCePtx27tQ-353" value="FK" style="shape=partialRectangle;overflow=hidden;connectable=0;fillColor=none;top=0;left=0;bottom=0;right=0;fontStyle=1;" parent="Ln_gXeSGQNPCePtx27tQ-352" vertex="1">
          <mxGeometry width="30" height="30" as="geometry">
            <mxRectangle width="30" height="30" as="alternateBounds" />
          </mxGeometry>
        </mxCell>
        <mxCell id="Ln_gXeSGQNPCePtx27tQ-354" value="rated_id INT NOT NULL" style="shape=partialRectangle;overflow=hidden;connectable=0;fillColor=none;top=0;left=0;bottom=0;right=0;align=left;spacingLeft=6;fontStyle=5;" parent="Ln_gXeSGQNPCePtx27tQ-352" vertex="1">
          <mxGeometry x="30" width="400" height="30" as="geometry">
            <mxRectangle width="400" height="30" as="alternateBounds" />
          </mxGeometry>
        </mxCell>
        <mxCell id="Ln_gXeSGQNPCePtx27tQ-197" value="" style="shape=partialRectangle;collapsible=0;dropTarget=0;pointerEvents=0;fillColor=none;points=[[0,0.5],[1,0.5]];portConstraint=eastwest;top=0;left=0;right=0;bottom=0;" parent="Ln_gXeSGQNPCePtx27tQ-193" vertex="1">
          <mxGeometry y="90" width="430" height="30" as="geometry" />
        </mxCell>
        <mxCell id="Ln_gXeSGQNPCePtx27tQ-198" value="" style="shape=partialRectangle;overflow=hidden;connectable=0;fillColor=none;top=0;left=0;bottom=0;right=0;" parent="Ln_gXeSGQNPCePtx27tQ-197" vertex="1">
          <mxGeometry width="30" height="30" as="geometry">
            <mxRectangle width="30" height="30" as="alternateBounds" />
          </mxGeometry>
        </mxCell>
        <mxCell id="Ln_gXeSGQNPCePtx27tQ-199" value="rate_value INTEGER NOT NULL" style="shape=partialRectangle;overflow=hidden;connectable=0;fillColor=none;top=0;left=0;bottom=0;right=0;align=left;spacingLeft=6;" parent="Ln_gXeSGQNPCePtx27tQ-197" vertex="1">
          <mxGeometry x="30" width="400" height="30" as="geometry">
            <mxRectangle width="400" height="30" as="alternateBounds" />
          </mxGeometry>
        </mxCell>
        <mxCell id="Ln_gXeSGQNPCePtx27tQ-200" value="" style="shape=partialRectangle;collapsible=0;dropTarget=0;pointerEvents=0;fillColor=none;points=[[0,0.5],[1,0.5]];portConstraint=eastwest;top=0;left=0;right=0;bottom=0;" parent="Ln_gXeSGQNPCePtx27tQ-193" vertex="1">
          <mxGeometry y="120" width="430" height="30" as="geometry" />
        </mxCell>
        <mxCell id="Ln_gXeSGQNPCePtx27tQ-201" value="" style="shape=partialRectangle;overflow=hidden;connectable=0;fillColor=none;top=0;left=0;bottom=0;right=0;" parent="Ln_gXeSGQNPCePtx27tQ-200" vertex="1">
          <mxGeometry width="30" height="30" as="geometry">
            <mxRectangle width="30" height="30" as="alternateBounds" />
          </mxGeometry>
        </mxCell>
        <mxCell id="Ln_gXeSGQNPCePtx27tQ-202" value="comment TEXT " style="shape=partialRectangle;overflow=hidden;connectable=0;fillColor=none;top=0;left=0;bottom=0;right=0;align=left;spacingLeft=6;" parent="Ln_gXeSGQNPCePtx27tQ-200" vertex="1">
          <mxGeometry x="30" width="400" height="30" as="geometry">
            <mxRectangle width="400" height="30" as="alternateBounds" />
          </mxGeometry>
        </mxCell>
        <mxCell id="Ln_gXeSGQNPCePtx27tQ-218" value="" style="shape=partialRectangle;collapsible=0;dropTarget=0;pointerEvents=0;fillColor=none;points=[[0,0.5],[1,0.5]];portConstraint=eastwest;top=0;left=0;right=0;bottom=0;" parent="Ln_gXeSGQNPCePtx27tQ-193" vertex="1">
          <mxGeometry y="150" width="430" height="30" as="geometry" />
        </mxCell>
        <mxCell id="Ln_gXeSGQNPCePtx27tQ-219" value="" style="shape=partialRectangle;overflow=hidden;connectable=0;fillColor=none;top=0;left=0;bottom=0;right=0;" parent="Ln_gXeSGQNPCePtx27tQ-218" vertex="1">
          <mxGeometry width="30" height="30" as="geometry">
            <mxRectangle width="30" height="30" as="alternateBounds" />
          </mxGeometry>
        </mxCell>
        <mxCell id="Ln_gXeSGQNPCePtx27tQ-220" value="created_at TIMESTAMP  DEFAULT CURRENT_TIME_STAMP" style="shape=partialRectangle;overflow=hidden;connectable=0;fillColor=none;top=0;left=0;bottom=0;right=0;align=left;spacingLeft=6;" parent="Ln_gXeSGQNPCePtx27tQ-218" vertex="1">
          <mxGeometry x="30" width="400" height="30" as="geometry">
            <mxRectangle width="400" height="30" as="alternateBounds" />
          </mxGeometry>
        </mxCell>
        <mxCell id="Ln_gXeSGQNPCePtx27tQ-224" value="Requests" style="shape=table;startSize=30;container=1;collapsible=1;childLayout=tableLayout;fixedRows=1;rowLines=0;fontStyle=1;align=center;resizeLast=1;" parent="1" vertex="1">
          <mxGeometry x="1010" y="20" width="430" height="420" as="geometry" />
        </mxCell>
        <mxCell id="Ln_gXeSGQNPCePtx27tQ-225" value="" style="shape=partialRectangle;collapsible=0;dropTarget=0;pointerEvents=0;fillColor=none;points=[[0,0.5],[1,0.5]];portConstraint=eastwest;top=0;left=0;right=0;bottom=1;" parent="Ln_gXeSGQNPCePtx27tQ-224" vertex="1">
          <mxGeometry y="30" width="430" height="30" as="geometry" />
        </mxCell>
        <mxCell id="Ln_gXeSGQNPCePtx27tQ-226" value="PK" style="shape=partialRectangle;overflow=hidden;connectable=0;fillColor=none;top=0;left=0;bottom=0;right=0;fontStyle=1;" parent="Ln_gXeSGQNPCePtx27tQ-225" vertex="1">
          <mxGeometry width="30" height="30" as="geometry">
            <mxRectangle width="30" height="30" as="alternateBounds" />
          </mxGeometry>
        </mxCell>
        <mxCell id="Ln_gXeSGQNPCePtx27tQ-227" value="ID SERIAL" style="shape=partialRectangle;overflow=hidden;connectable=0;fillColor=none;top=0;left=0;bottom=0;right=0;align=left;spacingLeft=6;fontStyle=5;" parent="Ln_gXeSGQNPCePtx27tQ-225" vertex="1">
          <mxGeometry x="30" width="400" height="30" as="geometry">
            <mxRectangle width="400" height="30" as="alternateBounds" />
          </mxGeometry>
        </mxCell>
        <mxCell id="Ln_gXeSGQNPCePtx27tQ-228" value="" style="shape=partialRectangle;collapsible=0;dropTarget=0;pointerEvents=0;fillColor=none;points=[[0,0.5],[1,0.5]];portConstraint=eastwest;top=0;left=0;right=0;bottom=0;" parent="Ln_gXeSGQNPCePtx27tQ-224" vertex="1">
          <mxGeometry y="60" width="430" height="30" as="geometry" />
        </mxCell>
        <mxCell id="Ln_gXeSGQNPCePtx27tQ-229" value="FK" style="shape=partialRectangle;overflow=hidden;connectable=0;fillColor=none;top=0;left=0;bottom=0;right=0;fontStyle=1" parent="Ln_gXeSGQNPCePtx27tQ-228" vertex="1">
          <mxGeometry width="30" height="30" as="geometry">
            <mxRectangle width="30" height="30" as="alternateBounds" />
          </mxGeometry>
        </mxCell>
        <mxCell id="Ln_gXeSGQNPCePtx27tQ-230" value="requester_user_id INTEGER NOT NULL" style="shape=partialRectangle;overflow=hidden;connectable=0;fillColor=none;top=0;left=0;bottom=0;right=0;align=left;spacingLeft=6;" parent="Ln_gXeSGQNPCePtx27tQ-228" vertex="1">
          <mxGeometry x="30" width="400" height="30" as="geometry">
            <mxRectangle width="400" height="30" as="alternateBounds" />
          </mxGeometry>
        </mxCell>
        <mxCell id="Ln_gXeSGQNPCePtx27tQ-231" value="" style="shape=partialRectangle;collapsible=0;dropTarget=0;pointerEvents=0;fillColor=none;points=[[0,0.5],[1,0.5]];portConstraint=eastwest;top=0;left=0;right=0;bottom=0;" parent="Ln_gXeSGQNPCePtx27tQ-224" vertex="1">
          <mxGeometry y="90" width="430" height="30" as="geometry" />
        </mxCell>
        <mxCell id="Ln_gXeSGQNPCePtx27tQ-232" value="FK" style="shape=partialRectangle;overflow=hidden;connectable=0;fillColor=none;top=0;left=0;bottom=0;right=0;fontStyle=1" parent="Ln_gXeSGQNPCePtx27tQ-231" vertex="1">
          <mxGeometry width="30" height="30" as="geometry">
            <mxRectangle width="30" height="30" as="alternateBounds" />
          </mxGeometry>
        </mxCell>
        <mxCell id="Ln_gXeSGQNPCePtx27tQ-233" value="requested_user_id INTEGER NOT NULL" style="shape=partialRectangle;overflow=hidden;connectable=0;fillColor=none;top=0;left=0;bottom=0;right=0;align=left;spacingLeft=6;" parent="Ln_gXeSGQNPCePtx27tQ-231" vertex="1">
          <mxGeometry x="30" width="400" height="30" as="geometry">
            <mxRectangle width="400" height="30" as="alternateBounds" />
          </mxGeometry>
        </mxCell>
        <mxCell id="Ln_gXeSGQNPCePtx27tQ-237" value="" style="shape=partialRectangle;collapsible=0;dropTarget=0;pointerEvents=0;fillColor=none;points=[[0,0.5],[1,0.5]];portConstraint=eastwest;top=0;left=0;right=0;bottom=0;" parent="Ln_gXeSGQNPCePtx27tQ-224" vertex="1">
          <mxGeometry y="120" width="430" height="30" as="geometry" />
        </mxCell>
        <mxCell id="Ln_gXeSGQNPCePtx27tQ-238" value="FK" style="shape=partialRectangle;overflow=hidden;connectable=0;fillColor=none;top=0;left=0;bottom=0;right=0;fontStyle=1" parent="Ln_gXeSGQNPCePtx27tQ-237" vertex="1">
          <mxGeometry width="30" height="30" as="geometry">
            <mxRectangle width="30" height="30" as="alternateBounds" />
          </mxGeometry>
        </mxCell>
        <mxCell id="Ln_gXeSGQNPCePtx27tQ-239" value="item_id INTEGER NOT NULL" style="shape=partialRectangle;overflow=hidden;connectable=0;fillColor=none;top=0;left=0;bottom=0;right=0;align=left;spacingLeft=6;" parent="Ln_gXeSGQNPCePtx27tQ-237" vertex="1">
          <mxGeometry x="30" width="400" height="30" as="geometry">
            <mxRectangle width="400" height="30" as="alternateBounds" />
          </mxGeometry>
        </mxCell>
        <mxCell id="Ln_gXeSGQNPCePtx27tQ-240" value="" style="shape=partialRectangle;collapsible=0;dropTarget=0;pointerEvents=0;fillColor=none;points=[[0,0.5],[1,0.5]];portConstraint=eastwest;top=0;left=0;right=0;bottom=0;" parent="Ln_gXeSGQNPCePtx27tQ-224" vertex="1">
          <mxGeometry y="150" width="430" height="30" as="geometry" />
        </mxCell>
        <mxCell id="Ln_gXeSGQNPCePtx27tQ-241" value="FK" style="shape=partialRectangle;overflow=hidden;connectable=0;fillColor=none;top=0;left=0;bottom=0;right=0;fontStyle=1" parent="Ln_gXeSGQNPCePtx27tQ-240" vertex="1">
          <mxGeometry width="30" height="30" as="geometry">
            <mxRectangle width="30" height="30" as="alternateBounds" />
          </mxGeometry>
        </mxCell>
        <mxCell id="Ln_gXeSGQNPCePtx27tQ-242" value="flight_id INTEGER NOT NULL" style="shape=partialRectangle;overflow=hidden;connectable=0;fillColor=none;top=0;left=0;bottom=0;right=0;align=left;spacingLeft=6;" parent="Ln_gXeSGQNPCePtx27tQ-240" vertex="1">
          <mxGeometry x="30" width="400" height="30" as="geometry">
            <mxRectangle width="400" height="30" as="alternateBounds" />
          </mxGeometry>
        </mxCell>
        <mxCell id="Ln_gXeSGQNPCePtx27tQ-258" value="" style="shape=partialRectangle;collapsible=0;dropTarget=0;pointerEvents=0;fillColor=none;points=[[0,0.5],[1,0.5]];portConstraint=eastwest;top=0;left=0;right=0;bottom=0;" parent="Ln_gXeSGQNPCePtx27tQ-224" vertex="1">
          <mxGeometry y="180" width="430" height="30" as="geometry" />
        </mxCell>
        <mxCell id="Ln_gXeSGQNPCePtx27tQ-259" value="" style="shape=partialRectangle;overflow=hidden;connectable=0;fillColor=none;top=0;left=0;bottom=0;right=0;fontStyle=1" parent="Ln_gXeSGQNPCePtx27tQ-258" vertex="1">
          <mxGeometry width="30" height="30" as="geometry">
            <mxRectangle width="30" height="30" as="alternateBounds" />
          </mxGeometry>
        </mxCell>
        <mxCell id="Ln_gXeSGQNPCePtx27tQ-260" value="origin INT NOT NULL" style="shape=partialRectangle;overflow=hidden;connectable=0;fillColor=none;top=0;left=0;bottom=0;right=0;align=left;spacingLeft=6;" parent="Ln_gXeSGQNPCePtx27tQ-258" vertex="1">
          <mxGeometry x="30" width="400" height="30" as="geometry">
            <mxRectangle width="400" height="30" as="alternateBounds" />
          </mxGeometry>
        </mxCell>
        <mxCell id="Ln_gXeSGQNPCePtx27tQ-261" value="" style="shape=partialRectangle;collapsible=0;dropTarget=0;pointerEvents=0;fillColor=none;points=[[0,0.5],[1,0.5]];portConstraint=eastwest;top=0;left=0;right=0;bottom=0;" parent="Ln_gXeSGQNPCePtx27tQ-224" vertex="1">
          <mxGeometry y="210" width="430" height="30" as="geometry" />
        </mxCell>
        <mxCell id="Ln_gXeSGQNPCePtx27tQ-262" value="" style="shape=partialRectangle;overflow=hidden;connectable=0;fillColor=none;top=0;left=0;bottom=0;right=0;fontStyle=1" parent="Ln_gXeSGQNPCePtx27tQ-261" vertex="1">
          <mxGeometry width="30" height="30" as="geometry">
            <mxRectangle width="30" height="30" as="alternateBounds" />
          </mxGeometry>
        </mxCell>
        <mxCell id="Ln_gXeSGQNPCePtx27tQ-263" value="destination INT NOT NULL" style="shape=partialRectangle;overflow=hidden;connectable=0;fillColor=none;top=0;left=0;bottom=0;right=0;align=left;spacingLeft=6;" parent="Ln_gXeSGQNPCePtx27tQ-261" vertex="1">
          <mxGeometry x="30" width="400" height="30" as="geometry">
            <mxRectangle width="400" height="30" as="alternateBounds" />
          </mxGeometry>
        </mxCell>
        <mxCell id="Ln_gXeSGQNPCePtx27tQ-255" value="" style="shape=partialRectangle;collapsible=0;dropTarget=0;pointerEvents=0;fillColor=none;points=[[0,0.5],[1,0.5]];portConstraint=eastwest;top=0;left=0;right=0;bottom=0;" parent="Ln_gXeSGQNPCePtx27tQ-224" vertex="1">
          <mxGeometry y="240" width="430" height="30" as="geometry" />
        </mxCell>
        <mxCell id="Ln_gXeSGQNPCePtx27tQ-256" value="" style="shape=partialRectangle;overflow=hidden;connectable=0;fillColor=none;top=0;left=0;bottom=0;right=0;fontStyle=1" parent="Ln_gXeSGQNPCePtx27tQ-255" vertex="1">
          <mxGeometry width="30" height="30" as="geometry">
            <mxRectangle width="30" height="30" as="alternateBounds" />
          </mxGeometry>
        </mxCell>
        <mxCell id="Ln_gXeSGQNPCePtx27tQ-257" value="approvement_status BOOLEAN NOT NULL" style="shape=partialRectangle;overflow=hidden;connectable=0;fillColor=none;top=0;left=0;bottom=0;right=0;align=left;spacingLeft=6;" parent="Ln_gXeSGQNPCePtx27tQ-255" vertex="1">
          <mxGeometry x="30" width="400" height="30" as="geometry">
            <mxRectangle width="400" height="30" as="alternateBounds" />
          </mxGeometry>
        </mxCell>
        <mxCell id="Ln_gXeSGQNPCePtx27tQ-243" value="" style="shape=partialRectangle;collapsible=0;dropTarget=0;pointerEvents=0;fillColor=none;points=[[0,0.5],[1,0.5]];portConstraint=eastwest;top=0;left=0;right=0;bottom=0;" parent="Ln_gXeSGQNPCePtx27tQ-224" vertex="1">
          <mxGeometry y="270" width="430" height="30" as="geometry" />
        </mxCell>
        <mxCell id="Ln_gXeSGQNPCePtx27tQ-244" value="" style="shape=partialRectangle;overflow=hidden;connectable=0;fillColor=none;top=0;left=0;bottom=0;right=0;fontStyle=1" parent="Ln_gXeSGQNPCePtx27tQ-243" vertex="1">
          <mxGeometry width="30" height="30" as="geometry">
            <mxRectangle width="30" height="30" as="alternateBounds" />
          </mxGeometry>
        </mxCell>
        <mxCell id="Ln_gXeSGQNPCePtx27tQ-245" value="price FLOAT DEFAULT 0" style="shape=partialRectangle;overflow=hidden;connectable=0;fillColor=none;top=0;left=0;bottom=0;right=0;align=left;spacingLeft=6;" parent="Ln_gXeSGQNPCePtx27tQ-243" vertex="1">
          <mxGeometry x="30" width="400" height="30" as="geometry">
            <mxRectangle width="400" height="30" as="alternateBounds" />
          </mxGeometry>
        </mxCell>
        <mxCell id="Ln_gXeSGQNPCePtx27tQ-246" value="" style="shape=partialRectangle;collapsible=0;dropTarget=0;pointerEvents=0;fillColor=none;points=[[0,0.5],[1,0.5]];portConstraint=eastwest;top=0;left=0;right=0;bottom=0;" parent="Ln_gXeSGQNPCePtx27tQ-224" vertex="1">
          <mxGeometry y="300" width="430" height="30" as="geometry" />
        </mxCell>
        <mxCell id="Ln_gXeSGQNPCePtx27tQ-247" value="" style="shape=partialRectangle;overflow=hidden;connectable=0;fillColor=none;top=0;left=0;bottom=0;right=0;fontStyle=1" parent="Ln_gXeSGQNPCePtx27tQ-246" vertex="1">
          <mxGeometry width="30" height="30" as="geometry">
            <mxRectangle width="30" height="30" as="alternateBounds" />
          </mxGeometry>
        </mxCell>
        <mxCell id="Ln_gXeSGQNPCePtx27tQ-248" value="comments VARCHAR(200) " style="shape=partialRectangle;overflow=hidden;connectable=0;fillColor=none;top=0;left=0;bottom=0;right=0;align=left;spacingLeft=6;" parent="Ln_gXeSGQNPCePtx27tQ-246" vertex="1">
          <mxGeometry x="30" width="400" height="30" as="geometry">
            <mxRectangle width="400" height="30" as="alternateBounds" />
          </mxGeometry>
        </mxCell>
        <mxCell id="Ln_gXeSGQNPCePtx27tQ-234" value="" style="shape=partialRectangle;collapsible=0;dropTarget=0;pointerEvents=0;fillColor=none;points=[[0,0.5],[1,0.5]];portConstraint=eastwest;top=0;left=0;right=0;bottom=0;" parent="Ln_gXeSGQNPCePtx27tQ-224" vertex="1">
          <mxGeometry y="330" width="430" height="30" as="geometry" />
        </mxCell>
        <mxCell id="Ln_gXeSGQNPCePtx27tQ-235" value="" style="shape=partialRectangle;overflow=hidden;connectable=0;fillColor=none;top=0;left=0;bottom=0;right=0;" parent="Ln_gXeSGQNPCePtx27tQ-234" vertex="1">
          <mxGeometry width="30" height="30" as="geometry">
            <mxRectangle width="30" height="30" as="alternateBounds" />
          </mxGeometry>
        </mxCell>
        <mxCell id="Ln_gXeSGQNPCePtx27tQ-236" value="created_at TIMESTAMP  DEFAULT CURRENT_TIME_STAMP" style="shape=partialRectangle;overflow=hidden;connectable=0;fillColor=none;top=0;left=0;bottom=0;right=0;align=left;spacingLeft=6;" parent="Ln_gXeSGQNPCePtx27tQ-234" vertex="1">
          <mxGeometry x="30" width="400" height="30" as="geometry">
            <mxRectangle width="400" height="30" as="alternateBounds" />
          </mxGeometry>
        </mxCell>
        <mxCell id="Ln_gXeSGQNPCePtx27tQ-252" value="" style="shape=partialRectangle;collapsible=0;dropTarget=0;pointerEvents=0;fillColor=none;points=[[0,0.5],[1,0.5]];portConstraint=eastwest;top=0;left=0;right=0;bottom=0;" parent="Ln_gXeSGQNPCePtx27tQ-224" vertex="1">
          <mxGeometry y="360" width="430" height="30" as="geometry" />
        </mxCell>
        <mxCell id="Ln_gXeSGQNPCePtx27tQ-253" value="" style="shape=partialRectangle;overflow=hidden;connectable=0;fillColor=none;top=0;left=0;bottom=0;right=0;" parent="Ln_gXeSGQNPCePtx27tQ-252" vertex="1">
          <mxGeometry width="30" height="30" as="geometry">
            <mxRectangle width="30" height="30" as="alternateBounds" />
          </mxGeometry>
        </mxCell>
        <mxCell id="Ln_gXeSGQNPCePtx27tQ-254" value="deleted_at TIMESTAMP  DEFAULT CURRENT_TIME_STAMP" style="shape=partialRectangle;overflow=hidden;connectable=0;fillColor=none;top=0;left=0;bottom=0;right=0;align=left;spacingLeft=6;" parent="Ln_gXeSGQNPCePtx27tQ-252" vertex="1">
          <mxGeometry x="30" width="400" height="30" as="geometry">
            <mxRectangle width="400" height="30" as="alternateBounds" />
          </mxGeometry>
        </mxCell>
        <mxCell id="ZKE_8esb7ZRj2hKKGzbP-2" value="" style="shape=partialRectangle;collapsible=0;dropTarget=0;pointerEvents=0;fillColor=none;points=[[0,0.5],[1,0.5]];portConstraint=eastwest;top=0;left=0;right=0;bottom=0;" parent="Ln_gXeSGQNPCePtx27tQ-224" vertex="1">
          <mxGeometry y="390" width="430" height="30" as="geometry" />
        </mxCell>
        <mxCell id="ZKE_8esb7ZRj2hKKGzbP-3" value="" style="shape=partialRectangle;overflow=hidden;connectable=0;fillColor=none;top=0;left=0;bottom=0;right=0;" parent="ZKE_8esb7ZRj2hKKGzbP-2" vertex="1">
          <mxGeometry width="30" height="30" as="geometry">
            <mxRectangle width="30" height="30" as="alternateBounds" />
          </mxGeometry>
        </mxCell>
        <mxCell id="ZKE_8esb7ZRj2hKKGzbP-4" value="updated_at TIMESTAMP  DEFAULT CURRENT_TIME_STAMP" style="shape=partialRectangle;overflow=hidden;connectable=0;fillColor=none;top=0;left=0;bottom=0;right=0;align=left;spacingLeft=6;" parent="ZKE_8esb7ZRj2hKKGzbP-2" vertex="1">
          <mxGeometry x="30" width="400" height="30" as="geometry">
            <mxRectangle width="400" height="30" as="alternateBounds" />
          </mxGeometry>
        </mxCell>
        <mxCell id="Ln_gXeSGQNPCePtx27tQ-264" value="Reports" style="shape=table;startSize=30;container=1;collapsible=1;childLayout=tableLayout;fixedRows=1;rowLines=0;fontStyle=1;align=center;resizeLast=1;" parent="1" vertex="1">
          <mxGeometry x="1010" y="580" width="430" height="300" as="geometry" />
        </mxCell>
        <mxCell id="Ln_gXeSGQNPCePtx27tQ-265" value="" style="shape=partialRectangle;collapsible=0;dropTarget=0;pointerEvents=0;fillColor=none;points=[[0,0.5],[1,0.5]];portConstraint=eastwest;top=0;left=0;right=0;bottom=1;" parent="Ln_gXeSGQNPCePtx27tQ-264" vertex="1">
          <mxGeometry y="30" width="430" height="30" as="geometry" />
        </mxCell>
        <mxCell id="Ln_gXeSGQNPCePtx27tQ-266" value="PK" style="shape=partialRectangle;overflow=hidden;connectable=0;fillColor=none;top=0;left=0;bottom=0;right=0;fontStyle=1;" parent="Ln_gXeSGQNPCePtx27tQ-265" vertex="1">
          <mxGeometry width="30" height="30" as="geometry">
            <mxRectangle width="30" height="30" as="alternateBounds" />
          </mxGeometry>
        </mxCell>
        <mxCell id="Ln_gXeSGQNPCePtx27tQ-267" value="ID SERIAL" style="shape=partialRectangle;overflow=hidden;connectable=0;fillColor=none;top=0;left=0;bottom=0;right=0;align=left;spacingLeft=6;fontStyle=5;" parent="Ln_gXeSGQNPCePtx27tQ-265" vertex="1">
          <mxGeometry x="30" width="400" height="30" as="geometry">
            <mxRectangle width="400" height="30" as="alternateBounds" />
          </mxGeometry>
        </mxCell>
        <mxCell id="Ln_gXeSGQNPCePtx27tQ-268" value="" style="shape=partialRectangle;collapsible=0;dropTarget=0;pointerEvents=0;fillColor=none;points=[[0,0.5],[1,0.5]];portConstraint=eastwest;top=0;left=0;right=0;bottom=0;" parent="Ln_gXeSGQNPCePtx27tQ-264" vertex="1">
          <mxGeometry y="60" width="430" height="30" as="geometry" />
        </mxCell>
        <mxCell id="Ln_gXeSGQNPCePtx27tQ-269" value="FK" style="shape=partialRectangle;overflow=hidden;connectable=0;fillColor=none;top=0;left=0;bottom=0;right=0;fontStyle=1" parent="Ln_gXeSGQNPCePtx27tQ-268" vertex="1">
          <mxGeometry width="30" height="30" as="geometry">
            <mxRectangle width="30" height="30" as="alternateBounds" />
          </mxGeometry>
        </mxCell>
        <mxCell id="Ln_gXeSGQNPCePtx27tQ-270" value="request_id" style="shape=partialRectangle;overflow=hidden;connectable=0;fillColor=none;top=0;left=0;bottom=0;right=0;align=left;spacingLeft=6;" parent="Ln_gXeSGQNPCePtx27tQ-268" vertex="1">
          <mxGeometry x="30" width="400" height="30" as="geometry">
            <mxRectangle width="400" height="30" as="alternateBounds" />
          </mxGeometry>
        </mxCell>
        <mxCell id="Ln_gXeSGQNPCePtx27tQ-271" value="" style="shape=partialRectangle;collapsible=0;dropTarget=0;pointerEvents=0;fillColor=none;points=[[0,0.5],[1,0.5]];portConstraint=eastwest;top=0;left=0;right=0;bottom=0;" parent="Ln_gXeSGQNPCePtx27tQ-264" vertex="1">
          <mxGeometry y="90" width="430" height="30" as="geometry" />
        </mxCell>
        <mxCell id="Ln_gXeSGQNPCePtx27tQ-272" value="FK" style="shape=partialRectangle;overflow=hidden;connectable=0;fillColor=none;top=0;left=0;bottom=0;right=0;fontStyle=1" parent="Ln_gXeSGQNPCePtx27tQ-271" vertex="1">
          <mxGeometry width="30" height="30" as="geometry">
            <mxRectangle width="30" height="30" as="alternateBounds" />
          </mxGeometry>
        </mxCell>
        <mxCell id="Ln_gXeSGQNPCePtx27tQ-273" value="reported_user_id" style="shape=partialRectangle;overflow=hidden;connectable=0;fillColor=none;top=0;left=0;bottom=0;right=0;align=left;spacingLeft=6;" parent="Ln_gXeSGQNPCePtx27tQ-271" vertex="1">
          <mxGeometry x="30" width="400" height="30" as="geometry">
            <mxRectangle width="400" height="30" as="alternateBounds" />
          </mxGeometry>
        </mxCell>
        <mxCell id="Ln_gXeSGQNPCePtx27tQ-277" value="" style="shape=partialRectangle;collapsible=0;dropTarget=0;pointerEvents=0;fillColor=none;points=[[0,0.5],[1,0.5]];portConstraint=eastwest;top=0;left=0;right=0;bottom=0;" parent="Ln_gXeSGQNPCePtx27tQ-264" vertex="1">
          <mxGeometry y="120" width="430" height="30" as="geometry" />
        </mxCell>
        <mxCell id="Ln_gXeSGQNPCePtx27tQ-278" value="FK" style="shape=partialRectangle;overflow=hidden;connectable=0;fillColor=none;top=0;left=0;bottom=0;right=0;fontStyle=1" parent="Ln_gXeSGQNPCePtx27tQ-277" vertex="1">
          <mxGeometry width="30" height="30" as="geometry">
            <mxRectangle width="30" height="30" as="alternateBounds" />
          </mxGeometry>
        </mxCell>
        <mxCell id="Ln_gXeSGQNPCePtx27tQ-279" value="reporter_user_id" style="shape=partialRectangle;overflow=hidden;connectable=0;fillColor=none;top=0;left=0;bottom=0;right=0;align=left;spacingLeft=6;" parent="Ln_gXeSGQNPCePtx27tQ-277" vertex="1">
          <mxGeometry x="30" width="400" height="30" as="geometry">
            <mxRectangle width="400" height="30" as="alternateBounds" />
          </mxGeometry>
        </mxCell>
        <mxCell id="Jbtmd5UkiH4nnKv5t13t-4" value="" style="shape=partialRectangle;collapsible=0;dropTarget=0;pointerEvents=0;fillColor=none;points=[[0,0.5],[1,0.5]];portConstraint=eastwest;top=0;left=0;right=0;bottom=0;" vertex="1" parent="Ln_gXeSGQNPCePtx27tQ-264">
          <mxGeometry y="150" width="430" height="30" as="geometry" />
        </mxCell>
        <mxCell id="Jbtmd5UkiH4nnKv5t13t-5" value="FK" style="shape=partialRectangle;overflow=hidden;connectable=0;fillColor=none;top=0;left=0;bottom=0;right=0;fontStyle=1" vertex="1" parent="Jbtmd5UkiH4nnKv5t13t-4">
          <mxGeometry width="30" height="30" as="geometry">
            <mxRectangle width="30" height="30" as="alternateBounds" />
          </mxGeometry>
        </mxCell>
        <mxCell id="Jbtmd5UkiH4nnKv5t13t-6" value="answered_by_id" style="shape=partialRectangle;overflow=hidden;connectable=0;fillColor=none;top=0;left=0;bottom=0;right=0;align=left;spacingLeft=6;" vertex="1" parent="Jbtmd5UkiH4nnKv5t13t-4">
          <mxGeometry x="30" width="400" height="30" as="geometry">
            <mxRectangle width="400" height="30" as="alternateBounds" />
          </mxGeometry>
        </mxCell>
        <mxCell id="Ln_gXeSGQNPCePtx27tQ-274" value="" style="shape=partialRectangle;collapsible=0;dropTarget=0;pointerEvents=0;fillColor=none;points=[[0,0.5],[1,0.5]];portConstraint=eastwest;top=0;left=0;right=0;bottom=0;" parent="Ln_gXeSGQNPCePtx27tQ-264" vertex="1">
          <mxGeometry y="180" width="430" height="30" as="geometry" />
        </mxCell>
        <mxCell id="Ln_gXeSGQNPCePtx27tQ-275" value="" style="shape=partialRectangle;overflow=hidden;connectable=0;fillColor=none;top=0;left=0;bottom=0;right=0;" parent="Ln_gXeSGQNPCePtx27tQ-274" vertex="1">
          <mxGeometry width="30" height="30" as="geometry">
            <mxRectangle width="30" height="30" as="alternateBounds" />
          </mxGeometry>
        </mxCell>
        <mxCell id="Ln_gXeSGQNPCePtx27tQ-276" value="content TEXT  NOT NULL" style="shape=partialRectangle;overflow=hidden;connectable=0;fillColor=none;top=0;left=0;bottom=0;right=0;align=left;spacingLeft=6;" parent="Ln_gXeSGQNPCePtx27tQ-274" vertex="1">
          <mxGeometry x="30" width="400" height="30" as="geometry">
            <mxRectangle width="400" height="30" as="alternateBounds" />
          </mxGeometry>
        </mxCell>
        <mxCell id="Jbtmd5UkiH4nnKv5t13t-1" value="" style="shape=partialRectangle;collapsible=0;dropTarget=0;pointerEvents=0;fillColor=none;points=[[0,0.5],[1,0.5]];portConstraint=eastwest;top=0;left=0;right=0;bottom=0;" vertex="1" parent="Ln_gXeSGQNPCePtx27tQ-264">
          <mxGeometry y="210" width="430" height="30" as="geometry" />
        </mxCell>
        <mxCell id="Jbtmd5UkiH4nnKv5t13t-2" value="" style="shape=partialRectangle;overflow=hidden;connectable=0;fillColor=none;top=0;left=0;bottom=0;right=0;" vertex="1" parent="Jbtmd5UkiH4nnKv5t13t-1">
          <mxGeometry width="30" height="30" as="geometry">
            <mxRectangle width="30" height="30" as="alternateBounds" />
          </mxGeometry>
        </mxCell>
        <mxCell id="Jbtmd5UkiH4nnKv5t13t-3" value="answer TEXT" style="shape=partialRectangle;overflow=hidden;connectable=0;fillColor=none;top=0;left=0;bottom=0;right=0;align=left;spacingLeft=6;" vertex="1" parent="Jbtmd5UkiH4nnKv5t13t-1">
          <mxGeometry x="30" width="400" height="30" as="geometry">
            <mxRectangle width="400" height="30" as="alternateBounds" />
          </mxGeometry>
        </mxCell>
        <mxCell id="Jbtmd5UkiH4nnKv5t13t-10" value="" style="shape=partialRectangle;collapsible=0;dropTarget=0;pointerEvents=0;fillColor=none;points=[[0,0.5],[1,0.5]];portConstraint=eastwest;top=0;left=0;right=0;bottom=0;" vertex="1" parent="Ln_gXeSGQNPCePtx27tQ-264">
          <mxGeometry y="240" width="430" height="30" as="geometry" />
        </mxCell>
        <mxCell id="Jbtmd5UkiH4nnKv5t13t-11" value="" style="shape=partialRectangle;overflow=hidden;connectable=0;fillColor=none;top=0;left=0;bottom=0;right=0;" vertex="1" parent="Jbtmd5UkiH4nnKv5t13t-10">
          <mxGeometry width="30" height="30" as="geometry">
            <mxRectangle width="30" height="30" as="alternateBounds" />
          </mxGeometry>
        </mxCell>
        <mxCell id="Jbtmd5UkiH4nnKv5t13t-12" value="answered_at TIMESTAMP" style="shape=partialRectangle;overflow=hidden;connectable=0;fillColor=none;top=0;left=0;bottom=0;right=0;align=left;spacingLeft=6;" vertex="1" parent="Jbtmd5UkiH4nnKv5t13t-10">
          <mxGeometry x="30" width="400" height="30" as="geometry">
            <mxRectangle width="400" height="30" as="alternateBounds" />
          </mxGeometry>
        </mxCell>
        <mxCell id="Jbtmd5UkiH4nnKv5t13t-16" value="" style="shape=partialRectangle;collapsible=0;dropTarget=0;pointerEvents=0;fillColor=none;points=[[0,0.5],[1,0.5]];portConstraint=eastwest;top=0;left=0;right=0;bottom=0;" vertex="1" parent="Ln_gXeSGQNPCePtx27tQ-264">
          <mxGeometry y="270" width="430" height="30" as="geometry" />
        </mxCell>
        <mxCell id="Jbtmd5UkiH4nnKv5t13t-17" value="" style="shape=partialRectangle;overflow=hidden;connectable=0;fillColor=none;top=0;left=0;bottom=0;right=0;" vertex="1" parent="Jbtmd5UkiH4nnKv5t13t-16">
          <mxGeometry width="30" height="30" as="geometry">
            <mxRectangle width="30" height="30" as="alternateBounds" />
          </mxGeometry>
        </mxCell>
        <mxCell id="Jbtmd5UkiH4nnKv5t13t-18" value="created_at TIMESTAMP  DEFAULT CURRENT_TIME_STAMP" style="shape=partialRectangle;overflow=hidden;connectable=0;fillColor=none;top=0;left=0;bottom=0;right=0;align=left;spacingLeft=6;" vertex="1" parent="Jbtmd5UkiH4nnKv5t13t-16">
          <mxGeometry x="30" width="400" height="30" as="geometry">
            <mxRectangle width="400" height="30" as="alternateBounds" />
          </mxGeometry>
        </mxCell>
        <mxCell id="Ln_gXeSGQNPCePtx27tQ-280" value="Notificatoin " style="shape=table;startSize=30;container=1;collapsible=1;childLayout=tableLayout;fixedRows=1;rowLines=0;fontStyle=1;align=center;resizeLast=1;" parent="1" vertex="1">
          <mxGeometry x="390" y="740" width="430" height="210" as="geometry" />
        </mxCell>
        <mxCell id="Ln_gXeSGQNPCePtx27tQ-281" value="" style="shape=partialRectangle;collapsible=0;dropTarget=0;pointerEvents=0;fillColor=none;points=[[0,0.5],[1,0.5]];portConstraint=eastwest;top=0;left=0;right=0;bottom=1;" parent="Ln_gXeSGQNPCePtx27tQ-280" vertex="1">
          <mxGeometry y="30" width="430" height="30" as="geometry" />
        </mxCell>
        <mxCell id="Ln_gXeSGQNPCePtx27tQ-282" value="PK" style="shape=partialRectangle;overflow=hidden;connectable=0;fillColor=none;top=0;left=0;bottom=0;right=0;fontStyle=1;" parent="Ln_gXeSGQNPCePtx27tQ-281" vertex="1">
          <mxGeometry width="30" height="30" as="geometry">
            <mxRectangle width="30" height="30" as="alternateBounds" />
          </mxGeometry>
        </mxCell>
        <mxCell id="Ln_gXeSGQNPCePtx27tQ-283" value="ID SERIAL" style="shape=partialRectangle;overflow=hidden;connectable=0;fillColor=none;top=0;left=0;bottom=0;right=0;align=left;spacingLeft=6;fontStyle=5;" parent="Ln_gXeSGQNPCePtx27tQ-281" vertex="1">
          <mxGeometry x="30" width="400" height="30" as="geometry">
            <mxRectangle width="400" height="30" as="alternateBounds" />
          </mxGeometry>
        </mxCell>
        <mxCell id="Ln_gXeSGQNPCePtx27tQ-284" value="" style="shape=partialRectangle;collapsible=0;dropTarget=0;pointerEvents=0;fillColor=none;points=[[0,0.5],[1,0.5]];portConstraint=eastwest;top=0;left=0;right=0;bottom=0;" parent="Ln_gXeSGQNPCePtx27tQ-280" vertex="1">
          <mxGeometry y="60" width="430" height="30" as="geometry" />
        </mxCell>
        <mxCell id="Ln_gXeSGQNPCePtx27tQ-285" value="FK" style="shape=partialRectangle;overflow=hidden;connectable=0;fillColor=none;top=0;left=0;bottom=0;right=0;fontStyle=1" parent="Ln_gXeSGQNPCePtx27tQ-284" vertex="1">
          <mxGeometry width="30" height="30" as="geometry">
            <mxRectangle width="30" height="30" as="alternateBounds" />
          </mxGeometry>
        </mxCell>
        <mxCell id="Ln_gXeSGQNPCePtx27tQ-286" value="user_id " style="shape=partialRectangle;overflow=hidden;connectable=0;fillColor=none;top=0;left=0;bottom=0;right=0;align=left;spacingLeft=6;" parent="Ln_gXeSGQNPCePtx27tQ-284" vertex="1">
          <mxGeometry x="30" width="400" height="30" as="geometry">
            <mxRectangle width="400" height="30" as="alternateBounds" />
          </mxGeometry>
        </mxCell>
        <mxCell id="Ln_gXeSGQNPCePtx27tQ-287" value="" style="shape=partialRectangle;collapsible=0;dropTarget=0;pointerEvents=0;fillColor=none;points=[[0,0.5],[1,0.5]];portConstraint=eastwest;top=0;left=0;right=0;bottom=0;" parent="Ln_gXeSGQNPCePtx27tQ-280" vertex="1">
          <mxGeometry y="90" width="430" height="30" as="geometry" />
        </mxCell>
        <mxCell id="Ln_gXeSGQNPCePtx27tQ-288" value="" style="shape=partialRectangle;overflow=hidden;connectable=0;fillColor=none;top=0;left=0;bottom=0;right=0;" parent="Ln_gXeSGQNPCePtx27tQ-287" vertex="1">
          <mxGeometry width="30" height="30" as="geometry">
            <mxRectangle width="30" height="30" as="alternateBounds" />
          </mxGeometry>
        </mxCell>
        <mxCell id="Ln_gXeSGQNPCePtx27tQ-289" value="content TEXT NOT NULL" style="shape=partialRectangle;overflow=hidden;connectable=0;fillColor=none;top=0;left=0;bottom=0;right=0;align=left;spacingLeft=6;" parent="Ln_gXeSGQNPCePtx27tQ-287" vertex="1">
          <mxGeometry x="30" width="400" height="30" as="geometry">
            <mxRectangle width="400" height="30" as="alternateBounds" />
          </mxGeometry>
        </mxCell>
        <mxCell id="Ln_gXeSGQNPCePtx27tQ-293" value="" style="shape=partialRectangle;collapsible=0;dropTarget=0;pointerEvents=0;fillColor=none;points=[[0,0.5],[1,0.5]];portConstraint=eastwest;top=0;left=0;right=0;bottom=0;" parent="Ln_gXeSGQNPCePtx27tQ-280" vertex="1">
          <mxGeometry y="120" width="430" height="30" as="geometry" />
        </mxCell>
        <mxCell id="Ln_gXeSGQNPCePtx27tQ-294" value="" style="shape=partialRectangle;overflow=hidden;connectable=0;fillColor=none;top=0;left=0;bottom=0;right=0;" parent="Ln_gXeSGQNPCePtx27tQ-293" vertex="1">
          <mxGeometry width="30" height="30" as="geometry">
            <mxRectangle width="30" height="30" as="alternateBounds" />
          </mxGeometry>
        </mxCell>
        <mxCell id="Ln_gXeSGQNPCePtx27tQ-295" value="marked INT DEFAULT 0" style="shape=partialRectangle;overflow=hidden;connectable=0;fillColor=none;top=0;left=0;bottom=0;right=0;align=left;spacingLeft=6;" parent="Ln_gXeSGQNPCePtx27tQ-293" vertex="1">
          <mxGeometry x="30" width="400" height="30" as="geometry">
            <mxRectangle width="400" height="30" as="alternateBounds" />
          </mxGeometry>
        </mxCell>
        <mxCell id="Jbtmd5UkiH4nnKv5t13t-29" value="" style="shape=partialRectangle;collapsible=0;dropTarget=0;pointerEvents=0;fillColor=none;points=[[0,0.5],[1,0.5]];portConstraint=eastwest;top=0;left=0;right=0;bottom=0;" vertex="1" parent="Ln_gXeSGQNPCePtx27tQ-280">
          <mxGeometry y="150" width="430" height="30" as="geometry" />
        </mxCell>
        <mxCell id="Jbtmd5UkiH4nnKv5t13t-30" value="" style="shape=partialRectangle;overflow=hidden;connectable=0;fillColor=none;top=0;left=0;bottom=0;right=0;" vertex="1" parent="Jbtmd5UkiH4nnKv5t13t-29">
          <mxGeometry width="30" height="30" as="geometry">
            <mxRectangle width="30" height="30" as="alternateBounds" />
          </mxGeometry>
        </mxCell>
        <mxCell id="Jbtmd5UkiH4nnKv5t13t-31" value="request_id integer" style="shape=partialRectangle;overflow=hidden;connectable=0;fillColor=none;top=0;left=0;bottom=0;right=0;align=left;spacingLeft=6;" vertex="1" parent="Jbtmd5UkiH4nnKv5t13t-29">
          <mxGeometry x="30" width="400" height="30" as="geometry">
            <mxRectangle width="400" height="30" as="alternateBounds" />
          </mxGeometry>
        </mxCell>
        <mxCell id="Jbtmd5UkiH4nnKv5t13t-32" value="" style="shape=partialRectangle;collapsible=0;dropTarget=0;pointerEvents=0;fillColor=none;points=[[0,0.5],[1,0.5]];portConstraint=eastwest;top=0;left=0;right=0;bottom=0;" vertex="1" parent="Ln_gXeSGQNPCePtx27tQ-280">
          <mxGeometry y="180" width="430" height="30" as="geometry" />
        </mxCell>
        <mxCell id="Jbtmd5UkiH4nnKv5t13t-33" value="" style="shape=partialRectangle;overflow=hidden;connectable=0;fillColor=none;top=0;left=0;bottom=0;right=0;" vertex="1" parent="Jbtmd5UkiH4nnKv5t13t-32">
          <mxGeometry width="30" height="30" as="geometry">
            <mxRectangle width="30" height="30" as="alternateBounds" />
          </mxGeometry>
        </mxCell>
        <mxCell id="Jbtmd5UkiH4nnKv5t13t-34" value="created_at TIMESTAMP  DEFAULT CURRENT_TIME_STAMP" style="shape=partialRectangle;overflow=hidden;connectable=0;fillColor=none;top=0;left=0;bottom=0;right=0;align=left;spacingLeft=6;" vertex="1" parent="Jbtmd5UkiH4nnKv5t13t-32">
          <mxGeometry x="30" width="400" height="30" as="geometry">
            <mxRectangle width="400" height="30" as="alternateBounds" />
          </mxGeometry>
        </mxCell>
        <mxCell id="Ln_gXeSGQNPCePtx27tQ-351" value="&lt;font style=&quot;font-size: 36px;&quot;&gt;n:1&lt;/font&gt;" style="edgeStyle=orthogonalEdgeStyle;rounded=0;orthogonalLoop=1;jettySize=auto;html=1;entryX=0.475;entryY=1.012;entryDx=0;entryDy=0;entryPerimeter=0;fontFamily=Helvetica;fontSize=12;fontColor=default;fontStyle=1;" parent="1" source="Ln_gXeSGQNPCePtx27tQ-193" target="Ln_gXeSGQNPCePtx27tQ-132" edge="1">
          <mxGeometry relative="1" as="geometry" />
        </mxCell>
        <mxCell id="Ln_gXeSGQNPCePtx27tQ-355" value="&lt;font style=&quot;font-size: 36px;&quot;&gt;1:1&lt;/font&gt;" style="edgeStyle=orthogonalEdgeStyle;rounded=0;orthogonalLoop=1;jettySize=auto;html=1;fontFamily=Helvetica;fontSize=12;fontColor=default;fontStyle=1;exitX=0.515;exitY=0.004;exitDx=0;exitDy=0;exitPerimeter=0;" parent="1" source="Ln_gXeSGQNPCePtx27tQ-264" edge="1">
          <mxGeometry relative="1" as="geometry">
            <Array as="points">
              <mxPoint x="1230" y="481" />
            </Array>
            <mxPoint x="1230" y="440" as="targetPoint" />
          </mxGeometry>
        </mxCell>
        <mxCell id="Ln_gXeSGQNPCePtx27tQ-357" value="&lt;font style=&quot;font-size: 36px;&quot;&gt;n:1&lt;/font&gt;" style="edgeStyle=orthogonalEdgeStyle;rounded=0;orthogonalLoop=1;jettySize=auto;html=1;entryX=1;entryY=0.5;entryDx=0;entryDy=0;fontFamily=Helvetica;fontSize=12;fontColor=default;fontStyle=1;" parent="1" source="Ln_gXeSGQNPCePtx27tQ-47" target="Ln_gXeSGQNPCePtx27tQ-237" edge="1">
          <mxGeometry relative="1" as="geometry">
            <Array as="points">
              <mxPoint x="-130" y="275" />
              <mxPoint x="-130" y="-480" />
              <mxPoint x="1460" y="-480" />
              <mxPoint x="1460" y="155" />
            </Array>
          </mxGeometry>
        </mxCell>
      </root>
    </mxGraphModel>
  </diagram>
</mxfile>
